<svg width="32" height="32" viewBox="0 0 32 32" fill="none" xmlns="http://www.w3.org/2000/svg">
<circle cx="16" cy="16" r="15.6667" stroke="#0A8625" stroke-width="0.666667"/>
<path d="M7.11133 15.9998C7.11133 12.6476 7.11133 10.9715 8.15272 9.93007C9.19413 8.88867 10.8702 8.88867 14.2224 8.88867H17.778C21.1302 8.88867 22.8063 8.88867 23.8477 9.93007C24.8891 10.9715 24.8891 12.6476 24.8891 15.9998C24.8891 19.352 24.8891 21.0281 23.8477 22.0695C22.8063 23.1109 21.1302 23.1109 17.778 23.1109H14.2224C10.8702 23.1109 9.19413 23.1109 8.15272 22.0695C7.11133 21.0281 7.11133 19.352 7.11133 15.9998Z" stroke="#0A8625" stroke-width="1.33333" stroke-linecap="round" stroke-linejoin="round"/>
<path d="M15.1112 14.2211C15.1112 13.2393 14.3153 12.4434 13.3334 12.4434C12.3516 12.4434 11.5557 13.2393 11.5557 14.2211C11.5557 15.203 12.3516 15.9989 13.3334 15.9989C14.3153 15.9989 15.1112 15.203 15.1112 14.2211Z" stroke="#0A8625" stroke-width="1.33333" stroke-linecap="round" stroke-linejoin="round"/>
<path d="M16.8894 19.5556C16.8894 17.5919 15.2975 16 13.3339 16C11.3702 16 9.77832 17.5919 9.77832 19.5556" stroke="#0A8625" stroke-width="1.33333" stroke-linecap="round" stroke-linejoin="round"/>
<path d="M18.667 13.333H22.2225" stroke="#0A8625" stroke-width="1.33333" stroke-linecap="round" stroke-linejoin="round"/>
<path d="M18.667 16H22.2225" stroke="#0A8625" stroke-width="1.33333" stroke-linecap="round" stroke-linejoin="round"/>
</svg>
