<svg width="86" height="86" viewBox="0 0 86 86" fill="none" xmlns="http://www.w3.org/2000/svg">
<circle cx="43" cy="43" r="42.5521" fill="white" stroke="#BDCEFA" stroke-width="0.895833"/>
<path d="M68.3125 61.75H66.4375V54.1937H64.5625V61.75H62.6875V54.1937H60.8125V61.75H25.1875V31.75H27.0625V29.875H24.25C24.0014 29.875 23.7629 29.9738 23.5871 30.1496C23.4113 30.3254 23.3125 30.5639 23.3125 30.8125V61.75H21.4375V30.8125C21.4375 30.0666 21.7338 29.3512 22.2613 28.8238C22.7887 28.2963 23.5041 28 24.25 28H27.0625V26.125H24.25C23.0068 26.125 21.8145 26.6189 20.9354 27.4979C20.0564 28.377 19.5625 29.5693 19.5625 30.8125V61.75H17.6875C17.4389 61.75 17.2004 61.8488 17.0246 62.0246C16.8488 62.2004 16.75 62.4389 16.75 62.6875V64.5625C16.75 65.8057 17.2439 66.998 18.1229 67.8771C19.002 68.7561 20.1943 69.25 21.4375 69.25H64.5625C65.8057 69.25 66.998 68.7561 67.8771 67.8771C68.7561 66.998 69.25 65.8057 69.25 64.5625V62.6875C69.25 62.4389 69.1512 62.2004 68.9754 62.0246C68.7996 61.8488 68.5611 61.75 68.3125 61.75ZM67.375 64.5625C67.375 65.3084 67.0787 66.0238 66.5512 66.5512C66.0238 67.0787 65.3084 67.375 64.5625 67.375H21.4375C20.6916 67.375 19.9762 67.0787 19.4488 66.5512C18.9213 66.0238 18.625 65.3084 18.625 64.5625V63.625H67.375V64.5625ZM45.8125 39.25H51.4375V41.125H45.8125V39.25ZM45.8125 33.625H51.4375V35.5H45.8125V33.625ZM35.5 29.875H41.125C41.3736 29.875 41.6121 29.7762 41.7879 29.6004C41.9637 29.4246 42.0625 29.1861 42.0625 28.9375V23.3125C42.0625 23.0639 41.9637 22.8254 41.7879 22.6496C41.6121 22.4738 41.3736 22.375 41.125 22.375H35.5C35.2514 22.375 35.0129 22.4738 34.8371 22.6496C34.6613 22.8254 34.5625 23.0639 34.5625 23.3125V28.9375C34.5625 29.1861 34.6613 29.4246 34.8371 29.6004C35.0129 29.7762 35.2514 29.875 35.5 29.875ZM36.4375 24.25H40.1875V28H36.4375V24.25ZM45.8125 28H51.4375V29.875H45.8125V28ZM45.8125 22.375H51.4375V24.25H45.8125V22.375ZM41.125 44.875H35.5C35.2514 44.875 35.0129 44.9738 34.8371 45.1496C34.6613 45.3254 34.5625 45.5639 34.5625 45.8125V51.4375C34.5625 51.6861 34.6613 51.9246 34.8371 52.1004C35.0129 52.2762 35.2514 52.375 35.5 52.375H41.125C41.3736 52.375 41.6121 52.2762 41.7879 52.1004C41.9637 51.9246 42.0625 51.6861 42.0625 51.4375V45.8125C42.0625 45.5639 41.9637 45.3254 41.7879 45.1496C41.6121 44.9738 41.3736 44.875 41.125 44.875ZM40.1875 50.5H36.4375V46.75H40.1875V50.5ZM45.8125 50.5H51.4375V52.375H45.8125V50.5ZM45.8125 44.875H51.4375V46.75H45.8125V44.875ZM42.625 35.3125L39.8781 37.375L42.625 39.4375L41.5 40.9375L38.3125 38.5469L35.125 40.9375L34 39.4375L36.7469 37.375L34 35.3125L35.125 33.8125L38.3125 36.2031L41.5 33.8125L42.625 35.3125ZM27.0625 56.125V58H58.9375V56.125H57.0625V19.5625C57.0625 18.8166 56.7662 18.1012 56.2387 17.5738C55.7113 17.0463 54.9959 16.75 54.25 16.75H31.75C31.0041 16.75 30.2887 17.0463 29.7613 17.5738C29.2338 18.1012 28.9375 18.8166 28.9375 19.5625V56.125H27.0625ZM30.8125 19.5625C30.8125 19.3139 30.9113 19.0754 31.0871 18.8996C31.2629 18.7238 31.5014 18.625 31.75 18.625H54.25C54.4986 18.625 54.7371 18.7238 54.9129 18.8996C55.0887 19.0754 55.1875 19.3139 55.1875 19.5625V56.125H30.8125V19.5625ZM62.9781 52.0281C63.0654 52.1357 63.1753 52.2226 63.3002 52.2825C63.425 52.3425 63.5615 52.3741 63.7 52.375C63.8408 52.3744 63.9797 52.342 64.1063 52.2803C64.2329 52.2186 64.3439 52.1292 64.4313 52.0187L68.1062 47.3312C68.2338 47.1637 68.3059 46.9605 68.3125 46.75V26.125C68.3125 25.3791 68.0162 24.6637 67.4887 24.1363C66.9613 23.6088 66.2459 23.3125 65.5 23.3125H61.75C61.0041 23.3125 60.2887 23.6088 59.7613 24.1363C59.2338 24.6637 58.9375 25.3791 58.9375 26.125V46.75C58.9392 46.9658 59.0154 47.1744 59.1531 47.3406L62.9781 52.0281ZM66.4375 46.4031L63.6906 49.9375L60.8125 46.4125V29.875H66.4375V46.4031ZM60.8125 26.125C60.8125 25.8764 60.9113 25.6379 61.0871 25.4621C61.2629 25.2863 61.5014 25.1875 61.75 25.1875H65.5C65.7486 25.1875 65.9871 25.2863 66.1629 25.4621C66.3387 25.6379 66.4375 25.8764 66.4375 26.125V28H60.8125V26.125Z" fill="#7C9FFF"/>
</svg>
