<svg width="86" height="86" viewBox="0 0 86 86" fill="none" xmlns="http://www.w3.org/2000/svg">
<circle cx="43" cy="43" r="42.5521" fill="white" stroke="#040F2C" stroke-width="0.895833"/>
<g clip-path="url(#clip0_816_216)">
<path d="M43 13C37.0666 13 31.2664 14.7595 26.3329 18.0559C21.3994 21.3524 17.5543 26.0377 15.2836 31.5195C13.013 37.0013 12.4189 43.0333 13.5765 48.8527C14.734 54.6721 17.5912 60.0176 21.7868 64.2132C25.9824 68.4088 31.3279 71.266 37.1473 72.4236C42.9667 73.5811 48.9987 72.987 54.4805 70.7164C59.9623 68.4458 64.6477 64.6006 67.9441 59.6671C71.2405 54.7336 73 48.9334 73 43C72.9911 35.0462 69.8275 27.4208 64.2034 21.7967C58.5792 16.1725 50.9538 13.0089 43 13ZM43 71.125C37.4374 71.125 31.9997 69.4755 27.3746 66.3851C22.7495 63.2947 19.1446 58.9021 17.0159 53.763C14.8872 48.6238 14.3302 42.9688 15.4154 37.5131C16.5006 32.0574 19.1793 27.046 23.1126 23.1126C27.046 19.1793 32.0574 16.5006 37.5131 15.4154C42.9688 14.3302 48.6238 14.8872 53.763 17.0159C58.9022 19.1446 63.2947 22.7495 66.3851 27.3746C69.4755 31.9997 71.125 37.4374 71.125 43C71.1166 50.4566 68.1507 57.6054 62.8781 62.8781C57.6054 68.1507 50.4566 71.1166 43 71.125Z" fill="#141B34"/>
<path d="M59.4344 41.3814C60.0227 40.6424 60.3433 39.7259 60.3438 38.7813C60.3426 37.6628 59.8977 36.5904 59.1068 35.7995C58.3159 35.0086 57.2436 34.5638 56.1251 34.5625H49.5832C49.5679 34.5408 49.5534 34.5186 49.5396 34.496C49.1426 33.8303 49.4566 32.6022 49.6268 32.1358C50.9374 29.9622 51.5702 26.0158 50.3707 23.0767C50.0802 22.2727 49.5959 21.5526 48.9608 20.9803C48.3257 20.408 47.5593 20.001 46.7294 19.7955C45.0616 19.3905 43.8279 19.5119 43.0624 20.155C42.7853 20.3968 42.5719 20.7031 42.4411 21.0469C42.3103 21.3906 42.2661 21.7612 42.3124 22.1261C42.3349 22.4664 42.363 22.8105 42.3912 23.156C42.5538 25.1505 42.7076 27.0344 41.7822 28.6431C40.6085 30.6836 38.9899 31.8203 37.1154 33.137C36.5454 33.5378 35.9552 33.9527 35.3543 34.4092C34.8947 34.7446 34.4569 35.1089 34.0437 35.5H28.4688C27.7174 35.5067 26.9993 35.8111 26.4721 36.3466C25.9448 36.882 25.6514 37.6047 25.6563 38.3561V56.0814C25.6514 56.8329 25.9448 57.5555 26.4721 58.091C26.9993 58.6264 27.7174 58.9308 28.4688 58.9375H34.7665C35.8985 60.7188 38.111 62.6889 42.3691 62.6885C43.0716 62.686 43.7731 62.6372 44.4691 62.5422H45.0438C44.5591 62.0067 44.1734 61.3893 43.9047 60.7188C36.7399 61.525 35.6107 56.5366 35.5001 55.9244V52.2635C35.5001 52.0148 35.4013 51.7764 35.2255 51.6005C35.0497 51.4247 34.8112 51.326 34.5626 51.326C34.3139 51.326 34.0755 51.4247 33.8996 51.6005C33.7238 51.7764 33.6251 52.0148 33.6251 52.2635V55.9999C33.625 56.0431 33.628 56.0864 33.634 56.1292C33.6904 56.4461 33.7713 56.7581 33.8758 57.0625H28.4688C28.2145 57.0564 27.973 56.9496 27.7973 56.7657C27.6215 56.5818 27.5259 56.3357 27.5313 56.0814V38.3561C27.5259 38.1018 27.6215 37.8557 27.7973 37.6718C27.973 37.4879 28.2145 37.3812 28.4688 37.375H33.1563V42.6733C33.1563 42.9219 33.2551 43.1604 33.4309 43.3362C33.6067 43.512 33.8452 43.6108 34.0938 43.6108C34.3425 43.6108 34.5809 43.512 34.7567 43.3362C34.9325 43.1604 35.0313 42.9219 35.0313 42.6733V37.2072C35.459 36.7111 35.949 36.2723 36.4891 35.9017C37.0624 35.4658 37.6376 35.0617 38.1935 34.6713C40.1646 33.2866 42.0265 31.9783 43.4074 29.5778C44.6243 27.4638 44.4307 25.0942 44.2596 23.0031C44.2315 22.6704 44.2062 22.3374 44.1837 22.0042C44.1743 21.8561 44.1808 21.6635 44.2685 21.5899C44.4279 21.4567 45.0321 21.3124 46.2874 21.617C46.828 21.7549 47.3257 22.0254 47.7355 22.404C48.1453 22.7826 48.4543 23.2574 48.6344 23.7855C49.579 26.0978 49.0619 29.4986 47.9866 31.2245C47.9576 31.2705 47.9328 31.319 47.9126 31.3694C47.5083 32.3844 47.3928 33.4915 47.5788 34.5681C46.48 34.5971 45.4359 35.0534 44.6684 35.8402C43.9009 36.627 43.4705 37.6821 43.4688 38.7813C43.4694 39.7259 43.7899 40.6424 44.3782 41.3814C43.5629 41.6752 42.858 42.2134 42.3598 42.9225C41.8615 43.6316 41.5942 44.4771 41.5942 45.3438C41.5942 46.2104 41.8615 47.056 42.3598 47.7651C42.858 48.4742 43.5629 49.0123 44.3782 49.3061C43.9635 49.8287 43.6793 50.4427 43.5492 51.0971C43.4191 51.7515 43.4469 52.4274 43.6302 53.0689C43.8134 53.7105 44.147 54.299 44.6032 54.7859C45.0593 55.2728 45.625 55.644 46.2532 55.8686C45.6649 56.6076 45.3444 57.5242 45.3438 58.4688C45.3451 59.5873 45.7899 60.6596 46.5808 61.4505C47.3717 62.2414 48.4441 62.6863 49.5626 62.6875H54.2501C55.3686 62.6863 56.4409 62.2414 57.2318 61.4505C58.0227 60.6596 58.4676 59.5873 58.4688 58.4688C58.4683 57.5242 58.1477 56.6076 57.5594 55.8686C58.1877 55.644 58.7533 55.2728 59.2095 54.7859C59.6656 54.299 59.9992 53.7105 60.1825 53.0689C60.3658 52.4274 60.3935 51.7515 60.2634 51.0971C60.1333 50.4427 59.8492 49.8287 59.4344 49.3061C60.2498 49.0123 60.9546 48.4742 61.4529 47.7651C61.9511 47.056 62.2184 46.2104 62.2184 45.3438C62.2184 44.4771 61.9511 43.6316 61.4529 42.9225C60.9546 42.2134 60.2498 41.6752 59.4344 41.3814ZM47.6876 36.4375H56.1251C56.7467 36.4375 57.3428 36.6844 57.7823 37.124C58.2219 37.5635 58.4688 38.1597 58.4688 38.7813C58.4688 39.4029 58.2219 39.999 57.7823 40.4385C57.3428 40.8781 56.7467 41.125 56.1251 41.125H47.6876C47.066 41.125 46.4698 40.8781 46.0303 40.4385C45.5907 39.999 45.3438 39.4029 45.3438 38.7813C45.3438 38.1597 45.5907 37.5635 46.0303 37.124C46.4698 36.6844 47.066 36.4375 47.6876 36.4375ZM54.2501 60.8125H49.5626C48.941 60.8125 48.3448 60.5656 47.9053 60.1261C47.4657 59.6865 47.2188 59.0904 47.2188 58.4688C47.2188 57.8472 47.4657 57.251 47.9053 56.8115C48.3448 56.3719 48.941 56.125 49.5626 56.125H54.2501C54.8717 56.125 55.4678 56.3719 55.9073 56.8115C56.3469 57.251 56.5938 57.8472 56.5938 58.4688C56.5938 59.0904 56.3469 59.6865 55.9073 60.1261C55.4678 60.5656 54.8717 60.8125 54.2501 60.8125ZM56.1251 54.25H47.6876C47.066 54.25 46.4698 54.0031 46.0303 53.5636C45.5907 53.124 45.3438 52.5279 45.3438 51.9063C45.3438 51.2847 45.5907 50.6885 46.0303 50.249C46.4698 49.8094 47.066 49.5625 47.6876 49.5625H56.1251C56.7467 49.5625 57.3428 49.8094 57.7823 50.249C58.2219 50.6885 58.4688 51.2847 58.4688 51.9063C58.4688 52.5279 58.2219 53.124 57.7823 53.5636C57.3428 54.0031 56.7467 54.25 56.1251 54.25ZM58.0001 47.6875H45.8126C45.191 47.6875 44.5948 47.4406 44.1553 47.0011C43.7157 46.5615 43.4688 45.9654 43.4688 45.3438C43.4688 44.7222 43.7157 44.126 44.1553 43.6865C44.5948 43.2469 45.191 43 45.8126 43H58.0001C58.6217 43 59.2178 43.2469 59.6573 43.6865C60.0969 44.126 60.3438 44.7222 60.3438 45.3438C60.3438 45.9654 60.0969 46.5615 59.6573 47.0011C59.2178 47.4406 58.6217 47.6875 58.0001 47.6875Z" fill="#141B34"/>
<path d="M30.7486 27.0087L30.3821 29.2555C30.3538 29.4291 30.375 29.6071 30.4431 29.7693C30.5113 29.9314 30.6237 30.0712 30.7675 30.1725C30.9113 30.2738 31.0806 30.3326 31.2563 30.3422C31.4319 30.3518 31.6067 30.3118 31.7607 30.2267L33.6249 29.1964L35.4891 30.2267C35.6431 30.3118 35.8179 30.3518 35.9935 30.3422C36.1691 30.3326 36.3385 30.2738 36.4823 30.1725C36.6261 30.0712 36.7385 29.9314 36.8067 29.7693C36.8748 29.6071 36.896 29.4291 36.8677 29.2555L36.5011 27.0087L38.0461 25.4258C38.1664 25.3024 38.2503 25.1482 38.2887 24.9803C38.3271 24.8123 38.3185 24.637 38.2637 24.4736C38.209 24.3102 38.1103 24.1651 37.9785 24.0541C37.8466 23.9432 37.6868 23.8707 37.5165 23.8447L35.4197 23.5241L34.4738 21.5084C34.3982 21.3471 34.2782 21.2107 34.1279 21.1151C33.9775 21.0195 33.803 20.9688 33.6249 20.9688C33.4467 20.9688 33.2723 21.0195 33.1219 21.1151C32.9716 21.2107 32.8516 21.3471 32.776 21.5084L31.8301 23.5241L29.7333 23.8447C29.563 23.8707 29.4032 23.9432 29.2713 24.0541C29.1395 24.1651 29.0408 24.3102 28.9861 24.4736C28.9313 24.637 28.9227 24.8123 28.9611 24.9803C28.9994 25.1482 29.0834 25.3024 29.2036 25.4258L30.7486 27.0087ZM32.6077 25.3016C32.7598 25.2783 32.9039 25.2179 33.0272 25.1258C33.1505 25.0336 33.2492 24.9126 33.3146 24.7733L33.6249 24.1128L33.9352 24.7737C34.0007 24.913 34.0994 25.0339 34.2227 25.126C34.346 25.218 34.49 25.2783 34.6421 25.3016L35.4296 25.422L34.8286 26.038C34.7261 26.1431 34.6497 26.2708 34.6056 26.4108C34.5615 26.5509 34.5508 26.6993 34.5746 26.8442L34.7063 27.6519L34.0782 27.305C33.9394 27.2282 33.7833 27.1879 33.6247 27.1879C33.466 27.1879 33.31 27.2282 33.1711 27.305L32.543 27.6519L32.6752 26.8437C32.6989 26.6989 32.6882 26.5506 32.6441 26.4106C32.6 26.2707 32.5236 26.143 32.4211 26.038L31.8197 25.422L32.6077 25.3016Z" fill="#141B34"/>
</g>
<defs>
<clipPath id="clip0_816_216">
<rect width="60" height="60" fill="white" transform="translate(13 13)"/>
</clipPath>
</defs>
</svg>
