<svg width="42" height="42" viewBox="0 0 42 42" fill="none" xmlns="http://www.w3.org/2000/svg">
<circle cx="21" cy="21" r="20.25" fill="#0A8625" stroke="#0A8625" stroke-width="1.5"/>
<path d="M11 20.6992C11 16.928 11 15.0424 12.1716 13.8708C13.3432 12.6992 15.2288 12.6992 19 12.6992H23C26.7712 12.6992 28.6569 12.6992 29.8284 13.8708C31 15.0424 31 16.928 31 20.6992C31 24.4704 31 26.3561 29.8284 27.5276C28.6569 28.6992 26.7712 28.6992 23 28.6992H19C15.2288 28.6992 13.3432 28.6992 12.1716 27.5276C11 26.3561 11 24.4704 11 20.6992Z" stroke="white" stroke-width="1.5" stroke-linecap="round" stroke-linejoin="round"/>
<path d="M20 18.6992C20 17.5946 19.1046 16.6992 18 16.6992C16.8954 16.6992 16 17.5946 16 18.6992C16 19.8038 16.8954 20.6992 18 20.6992C19.1046 20.6992 20 19.8038 20 18.6992Z" stroke="white" stroke-width="1.5" stroke-linecap="round" stroke-linejoin="round"/>
<path d="M22 24.6992C22 22.4901 20.2091 20.6992 18 20.6992C15.7909 20.6992 14 22.4901 14 24.6992" stroke="white" stroke-width="1.5" stroke-linecap="round" stroke-linejoin="round"/>
<path d="M24 17.6992H28" stroke="white" stroke-width="1.5" stroke-linecap="round" stroke-linejoin="round"/>
<path d="M24 20.6992H28" stroke="white" stroke-width="1.5" stroke-linecap="round" stroke-linejoin="round"/>
</svg>
