<svg width="48" height="48" viewBox="0 0 48 48" fill="none" xmlns="http://www.w3.org/2000/svg">
<circle cx="24" cy="24" r="23.75" stroke="#0A8625" stroke-width="0.5"/>
<path d="M30.1875 18.9375H17.8125C17.713 18.9375 17.6177 18.977 17.5473 19.0473C17.477 19.1177 17.4375 19.213 17.4375 19.3125C17.4375 19.412 17.477 19.5073 17.5473 19.5777C17.6177 19.648 17.713 19.6875 17.8125 19.6875H30.1875C30.287 19.6875 30.3823 19.648 30.4527 19.5777C30.523 19.5073 30.5625 19.412 30.5625 19.3125C30.5625 19.213 30.523 19.1177 30.4527 19.0473C30.3823 18.977 30.287 18.9375 30.1875 18.9375ZM30.5625 21.1875C30.5625 21.0881 30.523 20.9927 30.4527 20.9224C30.3823 20.852 30.287 20.8125 30.1875 20.8125H17.8125C17.713 20.8125 17.6177 20.852 17.5473 20.9224C17.477 20.9927 17.4375 21.0881 17.4375 21.1875C17.4375 21.287 17.477 21.3824 17.5473 21.4527C17.6177 21.523 17.713 21.5625 17.8125 21.5625H30.1875C30.287 21.5625 30.3823 21.523 30.4527 21.4527C30.523 21.3824 30.5625 21.287 30.5625 21.1875ZM23.4375 23.0625C23.4375 22.9631 23.398 22.8677 23.3277 22.7974C23.2573 22.7271 23.162 22.6875 23.0625 22.6875H17.8125C17.713 22.6875 17.6177 22.727 17.5473 22.7974C17.477 22.8677 17.4375 22.9631 17.4375 23.0625C17.4375 23.162 17.477 23.2574 17.5473 23.3277C17.6177 23.398 17.713 23.4375 17.8125 23.4375H23.0625C23.162 23.4375 23.2573 23.398 23.3277 23.3277C23.398 23.2574 23.4375 23.162 23.4375 23.0625ZM17.4375 26.6251C17.4375 26.9217 17.5255 27.2117 17.6903 27.4584C17.8551 27.7051 18.0894 27.8973 18.3635 28.0109C18.6376 28.1244 18.9392 28.1541 19.2301 28.0962C19.5211 28.0384 19.7884 27.8955 19.9982 27.6857C20.2079 27.4759 20.3508 27.2087 20.4087 26.9177C20.4666 26.6267 20.4368 26.3251 20.3233 26.051C20.2098 25.7769 20.0175 25.5427 19.7709 25.3779C19.5242 25.213 19.2342 25.1251 18.9375 25.1251C18.5398 25.1255 18.1585 25.2837 17.8773 25.5649C17.5961 25.8461 17.4379 26.2274 17.4375 26.6251ZM19.6875 26.6251C19.6875 26.7734 19.6435 26.9184 19.5611 27.0417C19.4787 27.1651 19.3616 27.2612 19.2245 27.318C19.0875 27.3747 18.9367 27.3896 18.7912 27.3607C18.6457 27.3317 18.5121 27.2603 18.4072 27.1554C18.3023 27.0505 18.2308 26.9169 18.2019 26.7714C18.173 26.6259 18.1878 26.4751 18.2446 26.3381C18.3014 26.201 18.3975 26.0839 18.5208 26.0015C18.6442 25.9191 18.7892 25.8751 18.9375 25.8751C19.1364 25.8751 19.3272 25.9541 19.4678 26.0947C19.6085 26.2354 19.6875 26.4262 19.6875 26.6251Z" fill="#0A8625"/>
<path d="M34.875 13.875H13.125C12.8267 13.8753 12.5408 13.994 12.3299 14.2049C12.119 14.4158 12.0003 14.7017 12 15V30.3752C12.0003 30.6734 12.119 30.9594 12.3299 31.1703C12.5408 31.3812 12.8267 31.4998 13.125 31.5002H24.4871L25.0225 30.7502H13.125C13.0256 30.75 12.9303 30.7105 12.86 30.6402C12.7897 30.5699 12.7501 30.4746 12.75 30.3752V15C12.7501 14.9006 12.7897 14.8053 12.86 14.735C12.9303 14.6647 13.0256 14.6251 13.125 14.625H34.875C34.9744 14.6251 35.0697 14.6647 35.14 14.735C35.2103 14.8053 35.2499 14.9006 35.25 15V30.3752C35.2499 30.4746 35.2103 30.5699 35.14 30.6402C35.0697 30.7105 34.9744 30.75 34.875 30.7502H32.3526L32.888 31.5002H34.875C35.1733 31.4998 35.4592 31.3812 35.6701 31.1703C35.881 30.9594 35.9997 30.6734 36 30.3751V15C35.9997 14.7017 35.881 14.4158 35.6701 14.2049C35.4592 13.994 35.1733 13.8753 34.875 13.875Z" fill="#0A8625"/>
<path d="M27.5449 32.1257L26.89 33.0316L26.8157 32.6648C26.7995 32.5381 26.7354 32.4224 26.6366 32.3414C26.5823 32.297 26.5194 32.2642 26.4519 32.245C26.3845 32.2257 26.3138 32.2205 26.2442 32.2296L25.7751 32.2768L26.4893 31.2763C26.2361 31.2252 25.9971 31.1195 25.789 30.9665L24.8458 32.2878C24.7879 32.3666 24.7547 32.4609 24.7505 32.5587C24.7462 32.6564 24.7712 32.7532 24.8222 32.8367C24.8739 32.9211 24.9491 32.9886 25.0385 33.0311C25.1279 33.0735 25.2277 33.0891 25.3257 33.0759L26.1175 32.996L26.257 33.6843C26.2686 33.7811 26.3084 33.8724 26.3715 33.9467C26.4345 34.021 26.5181 34.0752 26.6117 34.1024C26.6605 34.1172 26.7112 34.1247 26.7622 34.1247C26.8429 34.1247 26.9224 34.1058 26.9944 34.0694C27.0664 34.033 27.1288 33.9802 27.1766 33.9152L28.5259 32.0488C28.3292 32.1286 28.1193 32.1711 27.907 32.1743C27.7847 32.1739 27.663 32.1576 27.5449 32.1257ZM31.5854 30.9665C31.3772 31.1194 31.1383 31.2252 30.8851 31.2763L31.5993 32.2768L31.1302 32.2295C31.0606 32.2205 30.9899 32.2257 30.9224 32.2449C30.8549 32.2642 30.7921 32.297 30.7378 32.3414C30.639 32.4224 30.5749 32.5381 30.5587 32.6648L30.4844 33.0314L29.8282 32.1238C29.5017 32.2047 29.1578 32.178 28.8477 32.0478L30.1996 33.9178C30.2474 33.9822 30.3095 34.0344 30.3812 34.0704C30.4528 34.1063 30.5319 34.1249 30.612 34.1247C30.6631 34.1247 30.7138 34.1172 30.7627 34.1024C30.8563 34.0752 30.9399 34.0211 31.0029 33.9467C31.066 33.8724 31.1058 33.7811 31.1174 33.6843L31.2569 32.996L32.0486 33.0759C32.1467 33.0892 32.2466 33.0736 32.336 33.0312C32.4254 32.9887 32.5005 32.9212 32.5522 32.8367C32.603 32.7539 32.6281 32.6579 32.6243 32.5608C32.6206 32.4637 32.5881 32.3699 32.5311 32.2913L31.5854 30.9665ZM29.6725 31.3915C29.9185 31.2843 30.1128 31.0851 30.2137 30.8365C30.2482 30.7648 30.2906 30.6971 30.3401 30.6349C30.4162 30.6056 30.4954 30.5852 30.5761 30.5741C30.7097 30.5775 30.8421 30.5484 30.9621 30.4894C31.082 30.4304 31.1857 30.3431 31.2645 30.2352C31.3433 30.1272 31.3947 30.0017 31.4143 29.8695C31.4339 29.7373 31.4212 29.6024 31.3772 29.4762C31.3627 29.3949 31.3576 29.3123 31.3622 29.2299C31.4053 29.1651 31.4554 29.1053 31.5116 29.0515C31.7188 28.8774 31.8492 28.6287 31.8747 28.3592C31.8492 28.0897 31.7188 27.8411 31.5116 27.6669C31.4558 27.6134 31.4059 27.5541 31.3627 27.49C31.3576 27.4071 31.3625 27.324 31.3772 27.2423C31.4415 26.9851 31.4015 26.713 31.2659 26.4853C31.09 26.285 30.842 26.1624 30.5761 26.1444C30.4958 26.1332 30.417 26.1131 30.3412 26.0843C30.2911 26.0218 30.2483 25.9539 30.2136 25.8818C30.1127 25.6331 29.9184 25.4339 29.6723 25.327C29.4161 25.2694 29.1476 25.3153 28.925 25.4546C28.8499 25.4952 28.77 25.5261 28.6872 25.5467C28.6044 25.5261 28.5244 25.4952 28.4493 25.4546C28.2267 25.3154 27.9581 25.2695 27.7019 25.327C27.4559 25.4341 27.2616 25.6333 27.1606 25.882C27.1262 25.9537 27.0838 26.0213 27.0343 26.0836C26.9582 26.1128 26.879 26.1332 26.7983 26.1444C26.5324 26.1623 26.2844 26.2848 26.1085 26.4851C25.9729 26.7129 25.9329 26.9851 25.9972 27.2423C26.0117 27.3235 26.0168 27.4061 26.0122 27.4885C25.9691 27.5533 25.919 27.6131 25.8628 27.6669C25.6556 27.8411 25.5252 28.0897 25.4997 28.3592C25.5252 28.6287 25.6556 28.8774 25.8628 29.0515C25.9186 29.105 25.9685 29.1643 26.0117 29.2284C26.0167 29.3113 26.0119 29.3945 25.9972 29.4762C25.9532 29.6024 25.9405 29.7373 25.9601 29.8695C25.9798 30.0017 26.0312 30.1272 26.11 30.2351C26.1887 30.3431 26.2925 30.4303 26.4124 30.4893C26.5323 30.5484 26.6647 30.5775 26.7983 30.5741C26.8786 30.5852 26.9574 30.6054 27.0332 30.6341C27.0833 30.6966 27.1261 30.7645 27.1608 30.8367C27.2617 31.0853 27.456 31.2845 27.7021 31.3915C27.7688 31.4131 27.8385 31.4241 27.9086 31.4239C28.0985 31.4112 28.2832 31.3565 28.4493 31.2638C28.5244 31.2233 28.6044 31.1923 28.6872 31.1717C28.77 31.1923 28.8499 31.2233 28.925 31.2638C29.1477 31.403 29.4162 31.4489 29.6725 31.3915ZM28.1293 30.5856C28.0661 30.6173 28.001 30.6449 27.9343 30.6682C27.8916 30.6076 27.8533 30.5441 27.8196 30.4781C27.7502 30.2974 27.6298 30.1407 27.4732 30.0269C27.3165 29.9132 27.1302 29.8472 26.9369 29.8371C26.8645 29.8253 26.793 29.8085 26.7228 29.7869C26.724 29.7145 26.7301 29.6424 26.7412 29.5708C26.7789 29.3807 26.7734 29.1845 26.725 28.9968C26.6552 28.8209 26.5464 28.6632 26.4068 28.5354C26.3519 28.4808 26.3015 28.4219 26.2561 28.3592C26.3015 28.2965 26.3519 28.2376 26.4068 28.1831C26.5464 28.0553 26.6552 27.8975 26.725 27.7216C26.7734 27.5338 26.7789 27.3376 26.7412 27.1474C26.7302 27.0759 26.7241 27.0037 26.7228 26.9313C26.793 26.9099 26.8645 26.8932 26.9369 26.8813C27.1303 26.8714 27.3166 26.8055 27.4733 26.6917C27.63 26.5779 27.7503 26.4211 27.8196 26.2403C27.8533 26.1743 27.8916 26.1108 27.9343 26.0502C28.001 26.0735 28.0661 26.1011 28.1293 26.1328C28.2957 26.2398 28.4893 26.2967 28.6872 26.2967C28.885 26.2967 29.0787 26.2398 29.2451 26.1328C29.3083 26.1011 29.3734 26.0735 29.4401 26.0502C29.4827 26.1108 29.521 26.1743 29.5547 26.2403C29.6242 26.421 29.7446 26.5777 29.9012 26.6915C30.0579 26.8053 30.2441 26.8712 30.4375 26.8813C30.5099 26.8931 30.5814 26.9099 30.6515 26.9315C30.6504 27.0039 30.6443 27.0761 30.6332 27.1476C30.5955 27.3377 30.601 27.5339 30.6493 27.7216C30.7192 27.8975 30.828 28.0553 30.9676 28.1831C31.0225 28.2376 31.0729 28.2965 31.1183 28.3592C31.0729 28.4219 31.0225 28.4808 30.9676 28.5354C30.828 28.6632 30.7192 28.8209 30.6493 28.9968C30.601 29.1846 30.5955 29.3808 30.6332 29.571C30.6442 29.6425 30.6503 29.7147 30.6515 29.7871C30.5814 29.8086 30.5099 29.8253 30.4375 29.8371C30.2441 29.847 30.0578 29.9129 29.9011 30.0267C29.7444 30.1405 29.6241 30.2973 29.5547 30.4781C29.5211 30.5441 29.4828 30.6076 29.4401 30.6682C29.3734 30.6449 29.3083 30.6173 29.2451 30.5856C29.0787 30.4786 28.885 30.4217 28.6872 30.4217C28.4893 30.4217 28.2957 30.4786 28.1293 30.5856Z" fill="#0A8625"/>
<path d="M30 28.3594C30 28.0998 29.923 27.846 29.7788 27.6302C29.6346 27.4143 29.4296 27.2461 29.1898 27.1468C28.9499 27.0474 28.686 27.0215 28.4314 27.0721C28.1768 27.1227 27.943 27.2477 27.7594 27.4313C27.5759 27.6149 27.4509 27.8487 27.4002 28.1033C27.3496 28.3579 27.3756 28.6218 27.4749 28.8617C27.5743 29.1015 27.7425 29.3065 27.9583 29.4507C28.1742 29.5949 28.4279 29.6719 28.6875 29.6719C29.0355 29.6715 29.3691 29.533 29.6151 29.287C29.8612 29.0409 29.9996 28.7073 30 28.3594ZM28.6875 28.9219C28.5762 28.9219 28.4675 28.8889 28.375 28.8271C28.2825 28.7653 28.2104 28.6774 28.1678 28.5746C28.1252 28.4718 28.1141 28.3587 28.1358 28.2496C28.1575 28.1405 28.2111 28.0403 28.2898 27.9616C28.3684 27.8829 28.4686 27.8294 28.5778 27.8077C28.6869 27.786 28.8 27.7971 28.9028 27.8397C29.0055 27.8823 29.0934 27.9544 29.1552 28.0469C29.217 28.1394 29.25 28.2481 29.25 28.3594C29.2498 28.5085 29.1905 28.6515 29.0851 28.7569C28.9796 28.8624 28.8366 28.9217 28.6875 28.9219Z" fill="#0A8625"/>
<path d="M33.75 30.0001C33.9489 29.9999 34.1395 29.9208 34.2801 29.7802C34.4207 29.6396 34.4998 29.449 34.5 29.2501V16.125C34.4998 15.9261 34.4207 15.7355 34.2801 15.5949C34.1395 15.4543 33.9489 15.3752 33.75 15.375H14.25C14.0511 15.3752 13.8605 15.4543 13.7199 15.5949C13.5793 15.7355 13.5002 15.9261 13.5 16.125V29.2501C13.5002 29.449 13.5793 29.6396 13.7199 29.7802C13.8605 29.9208 14.0511 29.9999 14.25 30.0001H25.2389C25.219 29.8288 25.2196 29.6558 25.2409 29.4847C25.1727 29.4104 25.109 29.3321 25.0502 29.2501H14.25V19.0459L17.1401 16.1558C17.1491 16.146 17.1574 16.1357 17.1653 16.125H30.8347C30.8425 16.1357 30.8509 16.146 30.8599 16.1558L33.7501 19.046L33.7505 29.2501H32.3248C32.266 29.332 32.2023 29.4104 32.1341 29.4847C32.1554 29.6558 32.156 29.8288 32.1361 30.0001L33.75 30.0001ZM14.25 17.9854V16.125H16.1104L14.25 17.9854ZM31.8897 16.125H33.75L33.7501 17.9854L31.8897 16.125Z" fill="#0A8625"/>
</svg>
