<svg width="42" height="42" viewBox="0 0 42 42" fill="none" xmlns="http://www.w3.org/2000/svg">
<circle cx="21" cy="21" r="20.25" stroke="#0A8625" stroke-width="1.5"/>
<path d="M31 15.4492H28.2111C27.61 15.4492 27.3094 15.4492 27.026 15.3634C26.7426 15.2776 26.4925 15.1109 25.9923 14.7774C25.2421 14.2772 24.3862 13.7067 23.961 13.5779C23.5359 13.4492 23.085 13.4492 22.1833 13.4492C20.9571 13.4492 20.1667 13.4492 19.6154 13.6776C19.0641 13.9059 18.6306 14.3395 17.7635 15.2066L17.0004 15.9697C16.805 16.1651 16.7073 16.2628 16.6469 16.3592C16.4233 16.7168 16.4481 17.1763 16.7089 17.5077C16.7792 17.5971 16.8869 17.6838 17.1022 17.857C17.898 18.4975 19.0452 18.4335 19.7658 17.7086L21 16.4671H22L28 22.5028C28.5523 23.0584 28.5523 23.9591 28 24.5147C27.4477 25.0703 26.5523 25.0703 26 24.5147L25.5 24.0117M25.5 24.0117L22.5 20.9939M25.5 24.0117C26.0523 24.5673 26.0523 25.4681 25.5 26.0236C24.9477 26.5792 24.0523 26.5792 23.5 26.0236L22.5 25.0177M22.5 25.0177C23.0523 25.5732 23.0523 26.474 22.5 27.0296C21.9477 27.5851 21.0523 27.5851 20.5 27.0296L19 25.5206M22.5 25.0177L20.5 23.0177M19 25.5206L18.5 25.0177M19 25.5206C19.5523 26.0762 19.5523 26.977 19 27.5326C18.4477 28.0881 17.5523 28.0881 17 27.5326L14.1764 24.6501C13.5962 24.0578 13.306 23.7617 12.9344 23.6054C12.5627 23.4492 12.1481 23.4492 11.3189 23.4492H11" stroke="#0A8625" stroke-width="1.5" stroke-linecap="round" stroke-linejoin="round"/>
<path d="M31 23.4492H28.5" stroke="#0A8625" stroke-width="1.5" stroke-linecap="round"/>
<path d="M17.5 15.4492H11" stroke="#0A8625" stroke-width="1.5" stroke-linecap="round"/>
</svg>
