<svg width="48" height="48" viewBox="0 0 48 48" fill="none" xmlns="http://www.w3.org/2000/svg">
<circle cx="24" cy="24" r="23.75" fill="white" stroke="#0A8625" stroke-width="0.5"/>
<g clip-path="url(#clip0_308_1313)">
<path d="M29.4375 17.4376C29.4371 16.2902 29.0737 15.1723 28.3994 14.2439C27.7251 13.3155 26.7743 12.6243 25.6833 12.2691C24.5922 11.9138 23.4167 11.9129 22.3251 12.2664C21.2334 12.6198 20.2816 13.3095 19.6057 14.2368C18.9299 15.1641 18.5647 16.2814 18.5625 17.4289C18.5603 18.5763 18.9211 19.695 19.5933 20.625C20.2655 21.5549 21.2147 22.2483 22.3049 22.606C23.3952 22.9637 24.5707 22.9673 25.6631 22.6164C26.7596 22.2641 27.7159 21.5728 28.3943 20.6421C29.0726 19.7114 29.4379 18.5893 29.4375 17.4376ZM19.3125 17.4376C19.3125 16.5105 19.5874 15.6042 20.1025 14.8334C20.6176 14.0625 21.3496 13.4617 22.2062 13.1069C23.0627 12.7521 24.0052 12.6593 24.9145 12.8402C25.8238 13.0211 26.659 13.4675 27.3146 14.1231C27.9701 14.7786 28.4166 15.6138 28.5974 16.5231C28.7783 17.4324 28.6855 18.3749 28.3307 19.2314C27.9759 20.088 27.3751 20.8201 26.6042 21.3351C25.8334 21.8502 24.9271 22.1251 24 22.1251C22.7568 22.1251 21.5645 21.6313 20.6854 20.7522C19.8064 19.8731 19.3125 18.6808 19.3125 17.4376ZM23.6869 30.6264H22.1044C22.1735 30.3528 22.2106 30.0722 22.215 29.7901C22.1663 29.3326 22.0538 28.262 21.2175 27.8776C20.9944 27.7743 20.7464 27.737 20.5029 27.7702C20.2593 27.8035 20.0303 27.9058 19.8431 28.0651C19.3406 28.4832 19.3688 29.0645 19.3837 29.3776V29.7526C19.2731 30.0282 18.7969 30.8026 18.6337 31.0651L18.555 31.1926V30.7501C18.555 30.6507 18.5155 30.5553 18.4452 30.4849C18.3748 30.4146 18.2795 30.3751 18.18 30.3751H16.3125C16.213 30.3751 16.1177 30.4146 16.0473 30.4849C15.977 30.5553 15.9375 30.6507 15.9375 30.7501V35.6251C15.9375 35.7246 15.977 35.82 16.0473 35.8903C16.1177 35.9606 16.213 36.0001 16.3125 36.0001H18.1875C18.2686 35.9996 18.3473 35.9728 18.4118 35.9238C18.4764 35.8748 18.5233 35.8062 18.5456 35.7282C18.6318 35.7329 18.7182 35.7329 18.8044 35.7282C18.9474 35.831 19.1064 35.9096 19.275 35.9607C19.3402 35.9795 19.4078 35.989 19.4756 35.9889H22.9444C23.0756 35.9895 23.2061 35.9686 23.3306 35.927C23.5811 35.8469 23.7998 35.6893 23.9551 35.4771C24.1104 35.2648 24.1944 35.0088 24.195 34.7457C24.1979 34.6927 24.1979 34.6395 24.195 34.5864C24.3234 34.4439 24.417 34.2735 24.4684 34.0887C24.5198 33.9039 24.5277 33.7097 24.4913 33.5214C24.6566 33.3063 24.7463 33.0426 24.7463 32.7714C24.7465 32.6812 24.737 32.5914 24.7181 32.5032C24.8624 32.2959 24.939 32.049 24.9375 31.7964C24.9375 31.1251 24.3994 30.6264 23.6869 30.6264ZM23.6869 32.2895H23.5631C23.6897 32.3044 23.8056 32.3677 23.8866 32.4662C23.9675 32.5646 24.0071 32.6906 23.9972 32.8177C23.9872 32.9448 23.9285 33.0631 23.8332 33.1478C23.738 33.2325 23.6136 33.277 23.4862 33.272H23.2762C23.4022 33.2819 23.5195 33.3396 23.6043 33.4333C23.6891 33.527 23.7348 33.6495 23.7322 33.7758C23.7295 33.9021 23.6787 34.0226 23.5901 34.1126C23.5015 34.2027 23.3819 34.2554 23.2556 34.2601H22.9669C23.0929 34.2702 23.2102 34.3281 23.2949 34.4219C23.3795 34.5158 23.4251 34.6385 23.4222 34.7648C23.4193 34.8912 23.3682 35.0116 23.2794 35.1015C23.1905 35.1914 23.0707 35.2439 22.9444 35.2482H19.4813C19.3069 35.1995 19.1794 35.0607 19.0125 34.9932C18.9744 34.9807 18.9344 34.975 18.8944 34.9764C18.7839 34.9832 18.673 34.9832 18.5625 34.9764V32.1282C18.5625 32.1282 19.0556 31.8282 19.0706 31.7945C19.1344 31.652 20.1394 30.1239 20.1394 29.8239V29.5107C20.1394 29.2014 20.0569 28.8526 20.3269 28.6332C20.4062 28.5646 20.5042 28.521 20.6083 28.508C20.7124 28.4949 20.8181 28.5131 20.9119 28.5601C21.3375 28.7476 21.4331 29.462 21.4744 29.8726C21.4969 30.0901 21.1856 31.2995 21.1275 31.3726H23.6869C23.9644 31.3726 24.1875 31.5189 24.1875 31.7926C24.1875 31.8582 24.1745 31.9231 24.1493 31.9836C24.1241 32.0442 24.0872 32.0991 24.0406 32.1453C23.9941 32.1915 23.9389 32.228 23.8782 32.2528C23.8175 32.2775 23.7524 32.29 23.6869 32.2895ZM12.375 32.0626H14.8125C14.912 32.0626 15.0073 32.0231 15.0777 31.9528C15.148 31.8825 15.1875 31.7871 15.1875 31.6876C15.1875 31.5882 15.148 31.4928 15.0777 31.4224C15.0073 31.3521 14.912 31.3126 14.8125 31.3126H12.375C12.2755 31.3126 12.1802 31.3521 12.1098 31.4224C12.0395 31.4928 12 31.5882 12 31.6876C12 31.7871 12.0395 31.8825 12.1098 31.9528C12.1802 32.0231 12.2755 32.0626 12.375 32.0626ZM12.375 35.0626H14.8125C14.912 35.0626 15.0073 35.0231 15.0777 34.9528C15.148 34.8825 15.1875 34.7871 15.1875 34.6876C15.1875 34.5882 15.148 34.4928 15.0777 34.4224C15.0073 34.3521 14.912 34.3126 14.8125 34.3126H12.375C12.2755 34.3126 12.1802 34.3521 12.1098 34.4224C12.0395 34.4928 12 34.5882 12 34.6876C12 34.7871 12.0395 34.8825 12.1098 34.9528C12.1802 35.0231 12.2755 35.0626 12.375 35.0626ZM14.8125 32.8126H13.875C13.7755 32.8126 13.6802 32.8521 13.6098 32.9224C13.5395 32.9928 13.5 33.0882 13.5 33.1876C13.5 33.2871 13.5395 33.3825 13.6098 33.4528C13.6802 33.5231 13.7755 33.5626 13.875 33.5626H14.8125C14.912 33.5626 15.0073 33.5231 15.0777 33.4528C15.148 33.3825 15.1875 33.2871 15.1875 33.1876C15.1875 33.0882 15.148 32.9928 15.0777 32.9224C15.0073 32.8521 14.912 32.8126 14.8125 32.8126Z" fill="#0A8625"/>
<path d="M24 23.625C23.8331 23.625 23.6681 23.625 23.5031 23.6025L22.7531 28.6444C22.8625 28.9917 22.9329 29.3502 22.9631 29.7131C22.9662 29.7675 22.9662 29.8219 22.9631 29.8762H23.6831C24.7087 29.8762 25.5056 30.5437 25.6556 31.4738L24.5494 23.5988C24.375 23.6156 24.1875 23.625 24 23.625ZM19.365 27.4781C19.7011 27.194 20.1201 27.0262 20.5594 27H20.6569C20.9583 26.9979 21.2566 27.0619 21.5306 27.1875C21.759 27.292 21.9667 27.4369 22.1437 27.615L22.7606 23.49C21.7288 23.2807 20.7676 22.8108 19.9688 22.125H19.875C16.5712 22.125 13.875 24.8719 13.875 28.2488V29.625H18.1875C18.3193 29.625 18.4501 29.6485 18.5738 29.6944C18.5981 29.6494 18.6206 29.6081 18.6394 29.5706V29.4056C18.6188 29.0625 18.5738 28.1381 19.365 27.4781ZM29.4375 26.2406L29.0737 27.0131L28.2188 27.1444L28.8394 27.7781L28.6969 28.6444L29.4375 28.2375L30.1781 28.6444L30.0356 27.7781L30.6562 27.1444L29.8013 27.0131L29.4375 26.2406Z" fill="#0A8625"/>
<path d="M34.1249 34.74V28.2488C34.1249 24.8719 31.4287 22.125 28.1249 22.125H28.0312C27.9062 22.2338 27.7749 22.3381 27.6374 22.4381C26.9402 22.9475 26.1435 23.3046 25.2993 23.4862L26.4243 31.5712C26.4329 31.6338 26.4256 31.6976 26.403 31.7566C26.3804 31.8156 26.3432 31.868 26.2949 31.9088L25.5168 32.5706C25.5037 32.6025 25.4906 32.6381 25.4756 32.67C25.4606 32.7019 25.4756 32.7413 25.4756 32.7787C25.4764 33.1056 25.3966 33.4277 25.2431 33.7162V33.7687C25.2435 34.1474 25.1355 34.5183 24.9318 34.8375C24.9174 35.2611 24.7669 35.6688 24.5024 36H32.8837C33.2152 35.997 33.5321 35.8627 33.7647 35.6265C33.9974 35.3903 34.1269 35.0715 34.1249 34.74ZM31.5224 27.33L30.8362 28.0312L30.9993 29.0231C31.0152 29.0999 31.0138 29.1792 30.9953 29.2554C30.9768 29.3316 30.9417 29.4028 30.8924 29.4637C30.8489 29.5146 30.7948 29.5554 30.734 29.5832C30.6731 29.611 30.6069 29.6253 30.5399 29.625C30.4438 29.6238 30.3495 29.598 30.2662 29.55L29.4374 29.0925L28.6068 29.55C28.5089 29.6104 28.3931 29.6348 28.2791 29.6191C28.1652 29.6034 28.0603 29.5484 27.9824 29.4637C27.9332 29.4028 27.8981 29.3316 27.8796 29.2554C27.8611 29.1792 27.8597 29.0999 27.8756 29.0231L28.0387 28.0312L27.3524 27.33C27.2821 27.2645 27.2316 27.1806 27.2067 27.0877C27.1818 26.9949 27.1836 26.8969 27.2118 26.805C27.2437 26.7157 27.3002 26.6373 27.3749 26.5788C27.4496 26.5204 27.5393 26.4844 27.6337 26.475L28.5712 26.3325L28.9912 25.4381C29.0254 25.3458 29.087 25.2662 29.1678 25.21C29.2486 25.1538 29.3446 25.1236 29.4431 25.1236C29.5415 25.1236 29.6376 25.1538 29.7183 25.21C29.7991 25.2662 29.8608 25.3458 29.8949 25.4381L30.3149 26.3325L31.2524 26.475C31.3457 26.487 31.4336 26.5251 31.5062 26.5848C31.5789 26.6444 31.6332 26.7234 31.6631 26.8125C31.6898 26.9033 31.6908 26.9998 31.6659 27.0911C31.6411 27.1825 31.5914 27.2652 31.5224 27.33Z" fill="#0A8625"/>
</g>
<defs>
<clipPath id="clip0_308_1313">
<rect width="24" height="24" fill="white" transform="translate(12 12)"/>
</clipPath>
</defs>
</svg>
