<svg width="32" height="32" viewBox="0 0 32 32" fill="none" xmlns="http://www.w3.org/2000/svg">
<circle cx="16" cy="16" r="15.6667" stroke="#0A8625" stroke-width="0.666667"/>
<path d="M7.12598 17.7783C9.08115 17.7783 10.6661 19.3633 10.6661 21.3185" stroke="#0A8625" stroke-width="1.33333" stroke-linecap="round" stroke-linejoin="round"/>
<path d="M10.6661 8.9043C10.6661 10.8595 9.08115 12.4445 7.12598 12.4445" stroke="#0A8625" stroke-width="1.33333" stroke-linecap="round" stroke-linejoin="round"/>
<path d="M21.333 8.9043C21.333 10.8424 22.9055 12.4167 24.8373 12.4441" stroke="#0A8625" stroke-width="1.33333" stroke-linecap="round" stroke-linejoin="round"/>
<path d="M24.8881 15.1119V14.223C24.8881 11.7088 24.8881 10.4517 24.1071 9.6707C23.326 8.88965 22.0689 8.88965 19.5548 8.88965H12.4437C9.92953 8.88965 8.67245 8.88965 7.8914 9.6707C7.11035 10.4517 7.11035 11.7088 7.11035 14.223V16.0008C7.11035 18.5149 7.11035 19.772 7.8914 20.553C8.67245 21.3341 9.92953 21.3341 12.4437 21.3341H15.1104" stroke="#0A8625" stroke-width="1.33333" stroke-linecap="round" stroke-linejoin="round"/>
<path d="M18.6663 15.112C18.6663 16.5848 17.4725 17.7786 15.9997 17.7786C14.5269 17.7786 13.333 16.5848 13.333 15.112C13.333 13.6392 14.5269 12.4453 15.9997 12.4453C17.4725 12.4453 18.6663 13.6392 18.6663 15.112Z" stroke="#0A8625" stroke-width="1.33333" stroke-linecap="round" stroke-linejoin="round"/>
<path d="M26.833 23.75V17.25" stroke="#0A8625" stroke-width="0.8125" stroke-linecap="round"/>
<path d="M24.667 20.5H18.167" stroke="#0A8625" stroke-width="0.8125" stroke-linecap="round" stroke-linejoin="round"/>
<path d="M22.5001 18.333C22.5001 18.333 24.6667 19.9288 24.6667 20.4997C24.6667 21.0706 22.5 22.6663 22.5 22.6663" stroke="#0A8625" stroke-width="0.8125" stroke-linecap="round" stroke-linejoin="round"/>
</svg>
