<svg width="32" height="32" viewBox="0 0 32 32" fill="none" xmlns="http://www.w3.org/2000/svg">
<circle cx="16" cy="16" r="15.6667" stroke="#0A8625" stroke-width="0.666667"/>
<path d="M15.5556 24.8891C11.9938 24.8891 10.213 24.8891 9.10649 23.5873C8 22.2856 8 20.1904 8 16.0002C8 11.81 8 9.71482 9.10649 8.41308C10.213 7.11133 11.9938 7.11133 15.5556 7.11133C19.1172 7.11133 20.8981 7.11133 22.0046 8.41308C22.8953 9.46095 23.0691 11.0229 23.1029 13.778" stroke="#0A8625" stroke-width="1.33333" stroke-linecap="round" stroke-linejoin="round"/>
<path d="M12.4443 12.4453H18.6666M12.4443 16.8898H15.111" stroke="#0A8625" stroke-width="1.33333" stroke-linecap="round" stroke-linejoin="round"/>
<path d="M22.7633 21.428C23.5125 20.8826 23.9996 19.9987 23.9996 19.001C23.9996 17.3441 22.6565 16.001 20.9996 16.001H20.7773C19.1205 16.001 17.7773 17.3441 17.7773 19.001C17.7773 19.9987 18.2644 20.8826 19.0136 21.428M22.7633 21.428C22.2683 21.7884 21.6588 22.001 20.9996 22.001H20.7773C20.1181 22.001 19.5086 21.7884 19.0136 21.428M22.7633 21.428L23.2813 23.0591C23.4789 23.6812 23.5778 23.9924 23.5508 24.186C23.4945 24.5892 23.1657 24.8884 22.7775 24.8899C22.591 24.8906 22.3116 24.7439 21.7527 24.4507C21.5131 24.3249 21.3933 24.262 21.2707 24.225C21.0209 24.1497 20.756 24.1497 20.5062 24.225C20.3837 24.262 20.2638 24.3249 20.0242 24.4507C19.4653 24.7439 19.1859 24.8906 18.9994 24.8899C18.6112 24.8884 18.2824 24.5892 18.2261 24.186C18.1991 23.9924 18.298 23.6812 18.4956 23.0591L19.0136 21.428" stroke="#0A8625" stroke-width="1.33333"/>
</svg>
