<svg width="48" height="48" viewBox="0 0 48 48" fill="none" xmlns="http://www.w3.org/2000/svg">
<circle cx="24" cy="24" r="23.75" stroke="#0A8625" stroke-width="0.5"/>
<path d="M15.0001 32.5H20.5001V33.5H15.0001C14.6022 33.5 14.2207 33.342 13.9394 33.0607C13.6581 32.7794 13.5001 32.3978 13.5001 32V19C13.498 18.8678 13.5483 18.7402 13.6401 18.645L17.6401 14.645C17.6874 14.5981 17.7436 14.561 17.8054 14.5361C17.8672 14.5112 17.9334 14.499 18.0001 14.5H24.5301V15.5H18.5001V19C18.5001 19.1326 18.4474 19.2598 18.3536 19.3536C18.2598 19.4473 18.1327 19.5 18.0001 19.5H14.5001V32C14.5001 32.1326 14.5527 32.2598 14.6465 32.3536C14.7403 32.4473 14.8675 32.5 15.0001 32.5ZM34.5001 27.5V33.5C34.5001 33.8978 34.342 34.2794 34.0607 34.5607C33.7794 34.842 33.3979 35 33.0001 35H23.0001C22.6022 35 22.2207 34.842 21.9394 34.5607C21.6581 34.2794 21.5001 33.8978 21.5001 33.5V27.5C21.5001 27.1022 21.6581 26.7206 21.9394 26.4393C22.2207 26.158 22.6022 26 23.0001 26H33.0001C33.3979 26 33.7794 26.158 34.0607 26.4393C34.342 26.7206 34.5001 27.1022 34.5001 27.5ZM25.0001 30H23.0001V31H25.0001V30ZM29.5001 28.5H28.5001V28H27.5001V28.5H27.0001C26.8675 28.5 26.7403 28.5527 26.6465 28.6464C26.5527 28.7402 26.5001 28.8674 26.5001 29V30.5C26.5001 30.6326 26.5527 30.7598 26.6465 30.8536C26.7403 30.9473 26.8675 31 27.0001 31H28.5001V31.5H26.5001V32.5H27.5001V33H28.5001V32.5H29.0001C29.1327 32.5 29.2598 32.4473 29.3536 32.3536C29.4474 32.2598 29.5001 32.1326 29.5001 32V30.5C29.5001 30.3674 29.4474 30.2402 29.3536 30.1464C29.2598 30.0527 29.1327 30 29.0001 30H27.5001V29.5H29.5001V28.5ZM33.0001 30H31.0001V31H33.0001V30ZM28.0001 24C29.1935 24 30.3381 23.5259 31.182 22.682C32.026 21.8381 32.5001 20.6935 32.5001 19.5C32.5001 19.3674 32.4474 19.2402 32.3536 19.1464C32.2598 19.0527 32.1327 19 32.0001 19H28.5001V15.5C28.5001 15.3674 28.4474 15.2402 28.3536 15.1464C28.2598 15.0527 28.1327 15 28.0001 15C26.8066 15 25.662 15.4741 24.8181 16.318C23.9742 17.1619 23.5001 18.3065 23.5001 19.5C23.5001 20.6935 23.9742 21.8381 24.8181 22.682C25.662 23.5259 26.8066 24 28.0001 24ZM30.0001 18H34.0001C34.1327 18 34.2598 17.9473 34.3536 17.8536C34.4474 17.7598 34.5001 17.6326 34.5001 17.5C34.5001 16.3065 34.026 15.1619 33.182 14.318C32.3381 13.4741 31.1935 13 30.0001 13C29.8675 13 29.7403 13.0527 29.6465 13.1464C29.5527 13.2402 29.5001 13.3674 29.5001 13.5V17.5C29.5001 17.6326 29.5527 17.7598 29.6465 17.8536C29.7403 17.9473 29.8675 18 30.0001 18ZM22.5001 21H16.5001V22H22.5001V21ZM16.5001 24.5H22.5001V23.5H16.5001V24.5ZM16.5001 27H20.5001V26H16.5001V27ZM16.5001 29.5H20.5001V28.5H16.5001V29.5Z" fill="#0A8625"/>
</svg>
