<svg width="42" height="42" viewBox="0 0 42 42" fill="none" xmlns="http://www.w3.org/2000/svg">
<circle cx="21" cy="21" r="20.25" stroke="#0A8625" stroke-width="1.5"/>
<path d="M12 28.6992V26.6696C12 25.4273 12.5593 24.2091 13.6897 23.6938C15.0685 23.0653 16.7221 22.6992 18.5 22.6992C19.7448 22.6992 20.9287 22.8787 22 23.202" stroke="#0A8625" stroke-width="1.5" stroke-linecap="round" stroke-linejoin="round"/>
<path d="M18.5 19.6992C20.433 19.6992 22 18.1322 22 16.1992C22 14.2662 20.433 12.6992 18.5 12.6992C16.567 12.6992 15 14.2662 15 16.1992C15 18.1322 16.567 19.6992 18.5 19.6992Z" stroke="#0A8625" stroke-width="1.5" stroke-linecap="round" stroke-linejoin="round"/>
<path d="M23.5 12.8438C24.9457 13.274 26 14.6133 26 16.1988C26 17.7843 24.9457 19.1236 23.5 19.5539" stroke="#0A8625" stroke-width="1.5" stroke-linecap="round" stroke-linejoin="round"/>
<path d="M27 22.6992V28.6992M24 25.6992H30" stroke="#0A8625" stroke-width="1.5" stroke-linecap="round" stroke-linejoin="round"/>
</svg>
