<svg width="43" height="42" viewBox="0 0 43 42" fill="none" xmlns="http://www.w3.org/2000/svg">
<circle cx="21.5" cy="21" r="20.25" stroke="#0A8625" stroke-width="1.5"/>
<path d="M20.5 10.6992C16.0817 10.6992 12.5 14.2446 12.5 18.6181C12.5 20.111 12.9173 21.5074 13.6429 22.6992" stroke="#0A8625" stroke-width="1.5" stroke-linecap="round"/>
<path d="M26.5 13.6992H24.5C23.5572 13.6992 23.0858 13.6992 22.7929 13.9921C22.5 14.285 22.5 14.7564 22.5 15.6992V17.6992C22.5 18.642 22.5 19.1134 22.7929 19.4063C23.0858 19.6992 23.5572 19.6992 24.5 19.6992H26.5C27.4428 19.6992 27.9142 19.6992 28.2071 19.4063C28.5 19.1134 28.5 18.642 28.5 17.6992V15.6992C28.5 14.7564 28.5 14.285 28.2071 13.9921C27.9142 13.6992 27.4428 13.6992 26.5 13.6992Z" stroke="#0A8625" stroke-width="1.5" stroke-linecap="round" stroke-linejoin="round"/>
<path d="M24 19.6992V21.6992M27 19.6992V21.6992M24 11.6992V13.6992M27 11.6992V13.6992M22.5 15.1992H20.5M22.5 18.1992H20.5M30.5 15.1992H28.5M30.5 18.1992H28.5" stroke="#0A8625" stroke-width="1.5" stroke-linecap="round" stroke-linejoin="round"/>
<path d="M15.8829 25.7974C15.791 25.5208 15.7451 25.3825 15.7504 25.2705C15.7617 25.0335 15.9111 24.8254 16.1316 24.7397C16.2358 24.6992 16.381 24.6992 16.6716 24.6992H24.3284C24.619 24.6992 24.7642 24.6992 24.8684 24.7397C25.0889 24.8254 25.2383 25.0335 25.2496 25.2705C25.2549 25.3825 25.209 25.5208 25.1171 25.7974C24.9473 26.3086 24.8624 26.5643 24.7315 26.7712C24.4572 27.2048 24.0272 27.5159 23.5306 27.64C23.2935 27.6992 23.025 27.6992 22.4881 27.6992H18.5119C17.9749 27.6992 17.7065 27.6992 17.4694 27.64C16.9728 27.5159 16.5428 27.2048 16.2685 26.7712C16.1375 26.5643 16.0527 26.3086 15.8829 25.7974Z" stroke="#0A8625" stroke-width="1.5"/>
<path d="M23.5 27.6992L23.3707 28.3458C23.2293 29.0529 23.1586 29.4064 23.0001 29.6858C22.7552 30.1177 22.3582 30.4431 21.8866 30.5986C21.5816 30.6992 21.2211 30.6992 20.5 30.6992C19.7789 30.6992 19.4184 30.6992 19.1134 30.5986C18.6418 30.4431 18.2448 30.1177 17.9999 29.6858C17.8414 29.4064 17.7707 29.0529 17.6293 28.3458L17.5 27.6992" stroke="#0A8625" stroke-width="1.5"/>
</svg>
