<svg width="42" height="42" viewBox="0 0 42 42" fill="none" xmlns="http://www.w3.org/2000/svg">
<circle cx="21" cy="21" r="20.25" fill="#0A8625" stroke="#0A8625" stroke-width="1.5"/>
<path d="M11 21.1992C11 20.0946 11.8954 19.1992 13 19.1992C14.6568 19.1992 16 20.5423 16 22.1992V26.1992C16 27.8561 14.6568 29.1992 13 29.1992C11.8954 29.1992 11 28.3038 11 27.1992V21.1992Z" stroke="white" stroke-width="1.5" stroke-linecap="round" stroke-linejoin="round"/>
<path d="M24.4787 16.5055L24.2124 17.3656C23.9942 18.0703 23.8851 18.4227 23.969 18.701C24.0369 18.9261 24.1859 19.1202 24.389 19.2479C24.64 19.4057 25.0197 19.4057 25.7791 19.4057H26.1831C28.7532 19.4057 30.0382 19.4057 30.6452 20.1665C30.7145 20.2534 30.7762 20.3459 30.8296 20.4429C31.2965 21.2913 30.7657 22.4343 29.704 24.7203C28.7297 26.8181 28.2425 27.867 27.338 28.4844C27.2505 28.5441 27.1605 28.6005 27.0683 28.6533C26.116 29.1992 24.9362 29.1992 22.5764 29.1992H22.0646C19.2057 29.1992 17.7763 29.1992 16.8881 28.3387C16 27.4781 16 26.0931 16 23.3231V22.3495C16 20.8938 16 20.166 16.2583 19.4998C16.5167 18.8336 17.0114 18.2859 18.0007 17.1903L22.0921 12.6598C22.1947 12.5462 22.246 12.4893 22.2913 12.45C22.7135 12.0825 23.3652 12.1239 23.7344 12.5416C23.774 12.5863 23.8172 12.6491 23.9036 12.7748C24.0388 12.9713 24.1064 13.0695 24.1654 13.1669C24.6928 14.0383 24.8524 15.0736 24.6108 16.0564C24.5838 16.1661 24.5488 16.2793 24.4787 16.5055Z" stroke="white" stroke-width="1.5" stroke-linecap="round" stroke-linejoin="round"/>
</svg>
