<svg width="100" height="100" viewBox="0 0 100 100" fill="none" xmlns="http://www.w3.org/2000/svg">
<circle cx="50" cy="50" r="50" fill="#0A8625"/>
<g clip-path="url(#clip0_382_1783)">
<path d="M12.4167 77.6666C12.9229 77.6666 13.3333 77.2562 13.3333 76.7499C13.3333 76.2437 12.9229 75.8333 12.4167 75.8333C11.9104 75.8333 11.5 76.2437 11.5 76.7499C11.5 77.2562 11.9104 77.6666 12.4167 77.6666Z" fill="#36C455"/>
<path d="M16.5417 75.8333H15.1667C14.9236 75.8333 14.6904 75.9298 14.5185 76.1017C14.3466 76.2736 14.25 76.5068 14.25 76.7499C14.25 76.993 14.3466 77.2262 14.5185 77.3981C14.6904 77.57 14.9236 77.6666 15.1667 77.6666H16.5417C16.7848 77.6666 17.0179 77.57 17.1898 77.3981C17.3618 77.2262 17.4583 76.993 17.4583 76.7499C17.4583 76.5068 17.3618 76.2736 17.1898 76.1017C17.0179 75.9298 16.7848 75.8333 16.5417 75.8333Z" fill="#36C455"/>
<path d="M65.6538 79.4999H61.8461C61.6157 79.5184 61.4007 79.6229 61.2438 79.7928C61.087 79.9627 61 80.1854 61 80.4166C61 80.6477 61.087 80.8704 61.2438 81.0403C61.4007 81.2102 61.6157 81.3148 61.8461 81.3332H65.6538C65.8843 81.3148 66.0993 81.2102 66.2561 81.0403C66.4129 80.8704 66.5 80.6477 66.5 80.4166C66.5 80.1854 66.4129 79.9627 66.2561 79.7928C66.0993 79.6229 65.8843 79.5184 65.6538 79.4999ZM38.1538 79.4999H34.3461C34.1157 79.5184 33.9007 79.6229 33.7438 79.7928C33.587 79.9627 33.5 80.1854 33.5 80.4166C33.5 80.6477 33.587 80.8704 33.7438 81.0403C33.9007 81.2102 34.1157 81.3148 34.3461 81.3332H38.1538C38.3843 81.3148 38.5993 81.2102 38.7561 81.0403C38.9129 80.8704 39 80.6477 39 80.4166C39 80.1854 38.9129 79.9627 38.7561 79.7928C38.5993 79.6229 38.3843 79.5184 38.1538 79.4999ZM59.1666 79.4999H40.8333C40.5902 79.4999 40.357 79.5965 40.1851 79.7684C40.0132 79.9403 39.9167 80.1734 39.9167 80.4166C39.9167 80.6597 40.0132 80.8928 40.1851 81.0647C40.357 81.2366 40.5902 81.3332 40.8333 81.3332H48.1392V82.2499H44.5C44.2569 82.2499 44.0237 82.3465 43.8518 82.5184C43.6799 82.6903 43.5833 82.9234 43.5833 83.1666C43.5833 83.4097 43.6799 83.6428 43.8518 83.8147C44.0237 83.9866 44.2569 84.0832 44.5 84.0832H55.9583C56.2014 84.0832 56.4346 83.9866 56.6065 83.8147C56.7784 83.6428 56.875 83.4097 56.875 83.1666C56.875 82.9234 56.7784 82.6903 56.6065 82.5184C56.4346 82.3465 56.2014 82.2499 55.9583 82.2499H51.8608V81.3332H59.1666C59.4098 81.3332 59.6429 81.2366 59.8148 81.0647C59.9867 80.8928 60.0833 80.6597 60.0833 80.4166C60.0833 80.1734 59.9867 79.9403 59.8148 79.7684C59.6429 79.5965 59.4098 79.4999 59.1666 79.4999ZM34.4189 64.9925H32.9124L32.4787 63.7644C32.3524 63.4068 32.1183 63.0971 31.8087 62.8781C31.4991 62.6591 31.1292 62.5415 30.75 62.5415C30.3707 62.5415 30.0008 62.6591 29.6912 62.8781C29.3816 63.0971 29.1475 63.4068 29.0213 63.7644L28.5875 64.9925H27.0833C26.69 64.9925 26.3072 65.119 25.9913 65.3532C25.6754 65.5875 25.4432 65.9171 25.329 66.2935C25.2148 66.6698 25.2246 67.0729 25.3571 67.4432C25.4895 67.8135 25.7375 68.1314 26.0645 68.35L27.1464 69.0732L26.7552 70.1811C26.6269 70.5441 26.6163 70.9383 26.7247 71.3077C26.8331 71.6771 27.055 72.0031 27.359 72.2393C27.6631 72.4755 28.0338 72.61 28.4185 72.6237C28.8033 72.6375 29.1826 72.5297 29.5027 72.3157L30.75 71.482L31.9973 72.3157C32.3174 72.5297 32.6967 72.6374 33.0814 72.6237C33.4662 72.61 33.8369 72.4755 34.1409 72.2393C34.4449 72.0031 34.6669 71.6771 34.7753 71.3077C34.8837 70.9383 34.873 70.5441 34.7448 70.1811L34.3536 69.0732L35.4033 68.3715C35.7377 68.1583 35.994 67.8425 36.1337 67.4713C36.2733 67.1001 36.2889 66.6937 36.178 66.313C36.067 65.9322 35.8356 65.5977 35.5185 65.3596C35.2013 65.1215 34.8155 64.9927 34.4189 64.9925ZM32.1505 68.3406L33.0161 70.7916L30.75 69.2768L28.4839 70.7916L29.3494 68.3406L27.0833 66.8258H29.8844L30.75 64.3749L31.6156 66.8258H34.4166L32.1505 68.3406Z" fill="white"/>
<path d="M47.2529 64.9925H45.7464L45.3127 63.7644C45.1864 63.4068 44.9523 63.0971 44.6427 62.8781C44.3331 62.6591 43.9632 62.5415 43.584 62.5415C43.2047 62.5415 42.8348 62.6591 42.5252 62.8781C42.2156 63.0971 41.9815 63.4068 41.8552 63.7644L41.4215 64.9925H39.9173C39.524 64.9925 39.1412 65.119 38.8253 65.3532C38.5094 65.5875 38.2772 65.9171 38.163 66.2935C38.0488 66.6698 38.0586 67.0729 38.1911 67.4432C38.3235 67.8135 38.5715 68.1314 38.8985 68.35L39.9804 69.0732L39.5891 70.1811C39.4609 70.5441 39.4503 70.9383 39.5587 71.3077C39.667 71.6771 39.889 72.0031 40.193 72.2393C40.4971 72.4755 40.8677 72.61 41.2525 72.6237C41.6373 72.6375 42.0166 72.5297 42.3367 72.3157L43.584 71.482L44.8313 72.3157C45.1513 72.5297 45.5307 72.6374 45.9154 72.6237C46.3002 72.61 46.6709 72.4755 46.9749 72.2393C47.2789 72.0031 47.5009 71.6771 47.6093 71.3077C47.7177 70.9383 47.707 70.5441 47.5788 70.1811L47.1875 69.0732L48.2373 68.3715C48.5717 68.1583 48.828 67.8425 48.9677 67.4713C49.1073 67.1001 49.1229 66.6937 49.0119 66.313C48.901 65.9322 48.6696 65.5977 48.3525 65.3596C48.0353 65.1215 47.6495 64.9927 47.2529 64.9925ZM44.9845 68.3406L45.8501 70.7916L43.584 69.2768L41.3178 70.7916L42.1834 68.3406L39.9173 66.8258H42.7184L43.584 64.3749L44.4496 66.8258H47.2506L44.9845 68.3406Z" fill="#36C455"/>
<path d="M60.085 64.9925H58.5784L58.1447 63.7644C58.0184 63.4068 57.7844 63.0971 57.4747 62.8781C57.1651 62.6591 56.7952 62.5415 56.416 62.5415C56.0367 62.5415 55.6668 62.6591 55.3572 62.8781C55.0476 63.0971 54.8136 63.4068 54.6873 63.7644L54.2536 64.9925H52.7493C52.356 64.9925 51.9732 65.119 51.6573 65.3532C51.3414 65.5875 51.1092 65.9171 50.995 66.2935C50.8808 66.6698 50.8907 67.0729 51.0231 67.4432C51.1555 67.8135 51.4035 68.1314 51.7305 68.35L52.8124 69.0732L52.4212 70.181C52.293 70.5441 52.2823 70.9382 52.3907 71.3077C52.4991 71.6771 52.7211 72.003 53.0251 72.2393C53.3291 72.4755 53.6998 72.61 54.0845 72.6237C54.4693 72.6374 54.8486 72.5297 55.1687 72.3157L56.416 71.482L57.6633 72.3157C57.9834 72.5297 58.3627 72.6374 58.7475 72.6237C59.1322 72.61 59.5029 72.4755 59.8069 72.2393C60.111 72.0031 60.3329 71.6771 60.4413 71.3077C60.5497 70.9383 60.539 70.5441 60.4108 70.1811L60.0196 69.0732L61.0694 68.3715C61.4038 68.1583 61.66 67.8425 61.7997 67.4713C61.9394 67.1001 61.9549 66.6937 61.844 66.313C61.7331 65.9322 61.5017 65.5977 61.1845 65.3596C60.8673 65.1215 60.4815 64.9927 60.085 64.9925ZM57.8165 68.3406L58.6821 70.7916L56.416 69.2768L54.1499 70.7916L55.0155 68.3406L52.7493 66.8258H55.5504L56.416 64.3749L57.2816 66.8258H60.0827L57.8165 68.3406Z" fill="white"/>
<path d="M73.2448 70.1813L72.8536 69.0734L73.9033 68.3717C74.2377 68.1586 74.494 67.8427 74.6337 67.4715C74.7733 67.1004 74.7889 66.6939 74.678 66.3132C74.567 65.9324 74.3356 65.5979 74.0185 65.3598C73.7013 65.1218 73.3155 64.993 72.9189 64.9927H71.4124L70.9787 63.7646C70.8524 63.407 70.6183 63.0974 70.3087 62.8784C69.9991 62.6594 69.6292 62.5417 69.25 62.5417C68.8707 62.5417 68.5008 62.6594 68.1912 62.8784C67.8816 63.0974 67.6475 63.407 67.5213 63.7646L67.0875 64.9927H65.5833C65.19 64.9928 64.8072 65.1192 64.4913 65.3535C64.1754 65.5878 63.9432 65.9174 63.829 66.2937C63.7148 66.6701 63.7246 67.0732 63.8571 67.4435C63.9895 67.8138 64.2375 68.1317 64.5645 68.3502L65.6464 69.0734L65.2552 70.1813C65.127 70.5443 65.1163 70.9385 65.2247 71.3079C65.3331 71.6774 65.555 72.0033 65.8591 72.2395C66.1631 72.4757 66.5338 72.6102 66.9185 72.6239C67.3033 72.6377 67.6826 72.5299 68.0027 72.316L69.25 71.4822L70.4973 72.3159C70.8174 72.5299 71.1967 72.6377 71.5814 72.6239C71.9662 72.6102 72.3369 72.4757 72.6409 72.2395C72.9449 72.0033 73.1669 71.6774 73.2753 71.3079C73.3837 70.9385 73.373 70.5443 73.2448 70.1813ZM69.25 69.277L66.9839 70.7918L67.8494 68.3408L65.5833 66.8261H68.3844L69.25 64.3751L70.1156 66.8261H72.9166L70.6505 68.3408L71.5161 70.7918L69.25 69.277Z" fill="#36C455"/>
<path d="M41.5637 56.1759H58.7945C60.5851 56.1759 62.0412 54.7198 62.0412 52.9292V42.0411C62.0412 40.2504 60.5851 38.7943 58.7945 38.7943H48.1032V31.5662C48.1032 30.4446 49.0542 29.4935 50.1758 29.4935C51.2974 29.4935 52.2485 30.4446 52.2485 31.5662V32.0778C52.2485 33.8684 53.7046 35.3245 55.4953 35.3245C57.2859 35.3245 58.742 33.8684 58.742 32.0778V31.5662C58.742 26.8436 54.8984 23 50.1758 23C45.4533 23 41.6097 26.8436 41.6097 31.5662V38.7943H41.5637C39.7731 38.7943 38.317 40.2504 38.317 42.0411V52.9226C38.317 54.7198 39.7731 56.1759 41.5637 56.1759ZM42.705 31.5662C42.705 27.4471 46.0567 24.0954 50.1758 24.0954C54.295 24.0954 57.6467 27.4471 57.6467 31.5662V32.0778C57.6467 33.265 56.6825 34.2292 55.4953 34.2292C54.3081 34.2292 53.3439 33.265 53.3439 32.0778V31.5662C53.3439 29.8215 51.9206 28.3981 50.1758 28.3981C48.4311 28.3981 47.0078 29.8215 47.0078 31.5662V38.7943H42.6985V31.5662H42.705ZM39.4058 42.0411C39.4058 40.8539 40.37 39.8897 41.5572 39.8897H58.7879C59.9751 39.8897 60.9393 40.8539 60.9393 42.0411V52.9226C60.9393 54.1098 59.9751 55.074 58.7879 55.074H41.5637C40.3766 55.074 39.4124 54.1098 39.4124 52.9226V42.0411H39.4058Z" fill="white"/>
<path d="M84.8327 75.8333H83.4577C83.2146 75.8333 82.9814 75.9298 82.8095 76.1017C82.6376 76.2736 82.541 76.5068 82.541 76.7499C82.541 76.993 82.6376 77.2262 82.8095 77.3981C82.9814 77.57 83.2146 77.6666 83.4577 77.6666H84.8327C85.0758 77.6666 85.309 77.57 85.4809 77.3981C85.6528 77.2262 85.7493 76.993 85.7493 76.7499C85.7493 76.5068 85.6528 76.2736 85.4809 76.1017C85.309 75.9298 85.0758 75.8333 84.8327 75.8333Z" fill="#36C455"/>
<path d="M87.5827 77.6666C88.0889 77.6666 88.4993 77.2562 88.4993 76.7499C88.4993 76.2437 88.0889 75.8333 87.5827 75.8333C87.0764 75.8333 86.666 76.2437 86.666 76.7499C86.666 77.2562 87.0764 77.6666 87.5827 77.6666Z" fill="#36C455"/>
<path d="M80.5804 75.8334H76.9434C77.6944 75.1648 78.2956 74.345 78.7074 73.4277C79.1193 72.5104 79.3325 71.5163 79.3332 70.5108V65.1882C79.331 63.291 78.5764 61.4721 77.2349 60.1306C75.8933 58.7891 74.0745 58.0345 72.1772 58.0323H63.1146C66.6525 55.2947 69.2624 51.5347 70.5898 47.2628C71.9173 42.9909 71.8982 38.4139 70.535 34.1533C69.1718 29.8926 66.5306 26.1546 62.9699 23.4467C59.4093 20.7387 55.1016 19.192 50.6316 19.0164C50.3486 19.0056 50.0614 19.0001 49.7782 19.0001C45.7332 19.0003 41.768 20.1262 38.3264 22.2518C34.8849 24.3775 32.1029 27.4189 30.2918 31.0358C28.4806 34.6528 27.7118 38.7023 28.0713 42.7314C28.4309 46.7604 29.9047 50.6098 32.3277 53.8489C33.5097 55.4228 34.8988 56.83 36.4572 58.0323H27.8224C25.9252 58.0345 24.1063 58.7891 22.7648 60.1306C21.4233 61.4721 20.6686 63.291 20.6665 65.1882V70.5108C20.6671 71.5163 20.8804 72.5104 21.2922 73.4277C21.7041 74.345 22.3052 75.1648 23.0563 75.8334H19.4192C19.2888 75.8164 19.1563 75.8274 19.0305 75.8656C18.9046 75.9039 18.7884 75.9686 18.6896 76.0553C18.5907 76.1421 18.5116 76.2489 18.4573 76.3688C18.4031 76.4886 18.375 76.6186 18.375 76.7501C18.375 76.8816 18.4031 77.0116 18.4573 77.1314C18.5116 77.2512 18.5907 77.3581 18.6896 77.4448C18.7884 77.5316 18.9046 77.5963 19.0305 77.6345C19.1563 77.6728 19.2888 77.6838 19.4192 77.6667H80.5804C80.7108 77.6838 80.8434 77.6728 80.9692 77.6345C81.095 77.5963 81.2112 77.5316 81.3101 77.4448C81.4089 77.3581 81.4881 77.2512 81.5424 77.1314C81.5966 77.0116 81.6247 76.8816 81.6247 76.7501C81.6247 76.6186 81.5966 76.4886 81.5424 76.3688C81.4881 76.2489 81.4089 76.1421 81.3101 76.0553C81.2112 75.9686 81.095 75.9039 80.9692 75.8656C80.8434 75.8274 80.7108 75.8164 80.5804 75.8334ZM27.8224 75.8334C26.4108 75.8334 25.057 75.2726 24.0588 74.2745C23.0606 73.2763 22.4998 71.9225 22.4998 70.5108V65.1882C22.4998 63.7766 23.0606 62.4228 24.0588 61.4246C25.057 60.4264 26.4108 59.8657 27.8224 59.8657H43.8788C39.3154 58.4533 35.4098 55.4514 32.871 51.405C30.3322 47.3585 29.3287 42.5358 30.0425 37.8125C30.7564 33.0893 33.1404 28.7785 36.7616 25.6631C40.3828 22.5477 45.0011 20.834 49.778 20.8334C50.0377 20.8334 50.2997 20.8384 50.5615 20.8484C55.2675 21.0338 59.7565 22.8771 63.2347 26.0524C66.713 29.2277 68.9566 33.5305 69.5689 38.2002C70.1812 42.8699 69.1227 47.6057 66.5806 51.5704C64.0385 55.5351 60.1765 58.4733 55.6773 59.8657H72.1772C73.5889 59.8657 74.9427 60.4264 75.9409 61.4246C76.9391 62.4228 77.4998 63.7766 77.4998 65.1882V70.5108C77.4998 71.9225 76.9391 73.2763 75.9409 74.2745C74.9427 75.2726 73.5889 75.8334 72.1772 75.8334H27.8224ZM42.8062 11.6667C43.0781 11.6667 43.3439 11.5861 43.5701 11.435C43.7962 11.2839 43.9724 11.0692 44.0765 10.8179C44.1806 10.5667 44.2078 10.2902 44.1547 10.0235C44.1017 9.75678 43.9707 9.51177 43.7784 9.31948C43.5861 9.12718 43.3411 8.99622 43.0744 8.94317C42.8077 8.89011 42.5312 8.91734 42.28 9.02141C42.0287 9.12548 41.814 9.30172 41.6629 9.52784C41.5118 9.75396 41.4312 10.0198 41.4312 10.2917C41.4316 10.6563 41.5766 11.0058 41.8343 11.2636C42.0921 11.5213 42.4416 11.6663 42.8062 11.6667ZM42.8062 9.60425C42.9421 9.60425 43.0751 9.64457 43.1881 9.72011C43.3012 9.79566 43.3893 9.90303 43.4413 10.0287C43.4934 10.1543 43.507 10.2925 43.4804 10.4259C43.4539 10.5592 43.3884 10.6817 43.2923 10.7779C43.1961 10.874 43.0736 10.9395 42.9403 10.966C42.8069 10.9926 42.6687 10.979 42.5431 10.9269C42.4174 10.8749 42.3101 10.7868 42.2345 10.6737C42.159 10.5606 42.1187 10.4277 42.1187 10.2917C42.1188 10.1095 42.1913 9.9347 42.3202 9.80581C42.4491 9.67692 42.6239 9.60443 42.8062 9.60425ZM85.4312 35.0417C85.2499 35.0417 85.0726 35.0955 84.9219 35.1962C84.7711 35.297 84.6536 35.4401 84.5843 35.6076C84.5149 35.7751 84.4967 35.9594 84.5321 36.1372C84.5675 36.3151 84.6548 36.4784 84.783 36.6066C84.9112 36.7348 85.0745 36.8221 85.2523 36.8575C85.4301 36.8928 85.6144 36.8747 85.782 36.8053C85.9494 36.7359 86.0926 36.6184 86.1933 36.4677C86.2941 36.3169 86.3478 36.1397 86.3478 35.9584C86.3475 35.7154 86.2509 35.4824 86.079 35.3105C85.9072 35.1387 85.6742 35.042 85.4312 35.0417ZM85.4312 36.4167C85.3405 36.4167 85.2519 36.3899 85.1765 36.3395C85.1012 36.2891 85.0424 36.2176 85.0077 36.1338C84.973 36.0501 84.9639 35.9579 84.9816 35.869C84.9993 35.7801 85.043 35.6984 85.1071 35.6343C85.1712 35.5702 85.2528 35.5266 85.3417 35.5089C85.4306 35.4912 85.5228 35.5003 85.6066 35.535C85.6903 35.5697 85.7619 35.6284 85.8122 35.7038C85.8626 35.7792 85.8895 35.8678 85.8895 35.9584C85.8894 36.0799 85.841 36.1964 85.7551 36.2824C85.6692 36.3683 85.5527 36.4166 85.4312 36.4167ZM73.0562 9.83342C72.8749 9.83342 72.6976 9.88718 72.5469 9.9879C72.3961 10.0886 72.2786 10.2318 72.2093 10.3993C72.1399 10.5668 72.1217 10.7511 72.1571 10.9289C72.1925 11.1067 72.2798 11.2701 72.408 11.3983C72.5362 11.5265 72.6995 11.6138 72.8773 11.6491C73.0551 11.6845 73.2395 11.6664 73.407 11.597C73.5745 11.5276 73.7176 11.4101 73.8183 11.2594C73.9191 11.1086 73.9728 10.9314 73.9728 10.7501C73.9725 10.5071 73.8759 10.2741 73.704 10.1022C73.5322 9.93036 73.2992 9.83369 73.0562 9.83342ZM73.0562 11.2084C72.9655 11.2084 72.8769 11.1815 72.8015 11.1312C72.7262 11.0808 72.6674 11.0092 72.6327 10.9255C72.598 10.8417 72.5889 10.7496 72.6066 10.6607C72.6243 10.5718 72.668 10.4901 72.7321 10.426C72.7962 10.3619 72.8778 10.3182 72.9667 10.3006C73.0556 10.2829 73.1478 10.2919 73.2316 10.3266C73.3153 10.3613 73.3869 10.4201 73.4372 10.4954C73.4876 10.5708 73.5145 10.6594 73.5145 10.7501C73.5144 10.8716 73.466 10.9881 73.3801 11.074C73.2942 11.16 73.1777 11.2083 73.0562 11.2084ZM74.8895 32.7501C74.7082 32.7501 74.531 32.8038 74.3802 32.9046C74.2295 33.0053 74.112 33.1485 74.0426 33.316C73.9732 33.4835 73.9551 33.6678 73.9904 33.8456C74.0258 34.0234 74.1131 34.1867 74.2413 34.3149C74.3695 34.4431 74.5328 34.5304 74.7107 34.5658C74.8885 34.6012 75.0728 34.583 75.2403 34.5136C75.4078 34.4443 75.5509 34.3268 75.6517 34.176C75.7524 34.0253 75.8062 33.848 75.8062 33.6667C75.8059 33.4237 75.7092 33.1907 75.5374 33.0189C75.3655 32.847 75.1325 32.7504 74.8895 32.7501ZM74.8895 34.1251C74.7988 34.1251 74.7102 34.0982 74.6349 34.0478C74.5595 33.9975 74.5007 33.9259 74.466 33.8421C74.4314 33.7584 74.4223 33.6662 74.44 33.5773C74.4576 33.4884 74.5013 33.4068 74.5654 33.3427C74.6295 33.2786 74.7112 33.2349 74.8001 33.2172C74.889 33.1995 74.9811 33.2086 75.0649 33.2433C75.1486 33.278 75.2202 33.3367 75.2706 33.4121C75.3209 33.4875 75.3478 33.5761 75.3478 33.6667C75.3477 33.7883 75.2994 33.9048 75.2134 33.9907C75.1275 34.0766 75.011 34.125 74.8895 34.1251Z" fill="#36C455"/>
<path d="M29.056 27.2499C29.056 27.0686 29.0022 26.8914 28.9015 26.7406C28.8008 26.5899 28.6576 26.4724 28.4901 26.403C28.3226 26.3336 28.1383 26.3155 27.9605 26.3509C27.7827 26.3862 27.6193 26.4735 27.4911 26.6017C27.3629 26.7299 27.2756 26.8933 27.2403 27.0711C27.2049 27.2489 27.2231 27.4332 27.2924 27.6007C27.3618 27.7682 27.4793 27.9114 27.6301 28.0121C27.7808 28.1128 27.958 28.1666 28.1393 28.1666C28.3824 28.1663 28.6153 28.0696 28.7872 27.8978C28.959 27.7259 29.0557 27.4929 29.056 27.2499ZM27.681 27.2499C27.681 27.1593 27.7079 27.0707 27.7582 26.9953C27.8086 26.9199 27.8802 26.8612 27.9639 26.8265C28.0477 26.7918 28.1398 26.7827 28.2287 26.8004C28.3176 26.8181 28.3993 26.8617 28.4634 26.9258C28.5275 26.9899 28.5712 27.0716 28.5889 27.1605C28.6065 27.2494 28.5975 27.3416 28.5628 27.4253C28.5281 27.5091 28.4693 27.5806 28.394 27.631C28.3186 27.6814 28.23 27.7083 28.1393 27.7083C28.0178 27.7081 27.9013 27.6598 27.8154 27.5739C27.7294 27.4879 27.6811 27.3714 27.681 27.2499Z" fill="#36C455"/>
<path d="M16.4908 39.6301L17.1723 38.7341L16.742 38.4902L16.3043 39.494H16.2901L15.8455 38.4971L15.4078 38.7483L16.082 39.6232V39.6374L15.0273 39.5013V39.989L16.0888 39.8529V39.8671L15.4078 40.7416L15.8161 41.0001L16.2827 39.989H16.2969L16.7273 40.9927L17.1792 40.7347L16.4908 39.8739V39.8597L17.5734 39.989V39.5013L16.4908 39.6443V39.6301Z" fill="white"/>
<path d="M19.3282 13.989L18.9359 14.4927L19.1715 14.6412L19.44 14.0591H19.4478L19.6958 14.637L19.9561 14.4885L19.5597 13.9926V13.9844L20.183 14.0591V13.7781L19.5597 13.8606V13.8524L19.952 13.3363L19.7045 13.196L19.4524 13.774H19.4442L19.188 13.1997L18.9359 13.3445L19.3241 13.8483V13.8565L18.7168 13.7781V14.0591L19.3282 13.9807V13.989Z" fill="white"/>
<path d="M86.806 19.3268V18.8488L85.7441 18.9895V18.9753L86.4123 18.0962L85.9902 17.8569L85.5612 18.8414H85.547L85.1111 17.8638L84.6817 18.1104L85.3431 18.9684V18.9826L84.3086 18.8488V19.3268L85.3499 19.1934V19.2076L84.6817 20.0656L85.0827 20.3191L85.5401 19.3268H85.5539L85.976 20.3118L86.4192 20.0588L85.7441 19.2145V19.2003L86.806 19.3268Z" fill="white"/>
<path d="M65.0094 16.977L65.586 16.2185L65.2217 16.0122L64.8518 16.8615H64.8394L64.4636 16.0182L64.0928 16.2308L64.6634 16.971V16.983L63.7715 16.8679V17.2804L64.6694 17.1649V17.1773L64.0928 17.9175L64.4388 18.1361L64.8334 17.2804H64.8454L65.2097 18.1297L65.592 17.9115L65.0094 17.1832V17.1709L65.9252 17.2804V16.8679L65.0094 16.9889V16.977Z" fill="white"/>
</g>
<defs>
<clipPath id="clip0_382_1783">
<rect width="77" height="77" fill="white" transform="translate(11.5 8)"/>
</clipPath>
</defs>
</svg>
