<svg width="100" height="100" viewBox="0 0 100 100" fill="none" xmlns="http://www.w3.org/2000/svg">
<circle cx="50" cy="50" r="50" fill="#0A8625"/>
<g clip-path="url(#clip0_382_1833)">
<path d="M12.4167 77.6666C12.9229 77.6666 13.3333 77.2562 13.3333 76.7499C13.3333 76.2437 12.9229 75.8333 12.4167 75.8333C11.9104 75.8333 11.5 76.2437 11.5 76.7499C11.5 77.2562 11.9104 77.6666 12.4167 77.6666Z" fill="#36C455"/>
<path d="M16.5417 75.8333H15.1667C14.9236 75.8333 14.6904 75.9298 14.5185 76.1017C14.3466 76.2736 14.25 76.5068 14.25 76.7499C14.25 76.993 14.3466 77.2262 14.5185 77.3981C14.6904 77.57 14.9236 77.6666 15.1667 77.6666H16.5417C16.7848 77.6666 17.0179 77.57 17.1898 77.3981C17.3618 77.2262 17.4583 76.993 17.4583 76.7499C17.4583 76.5068 17.3618 76.2736 17.1898 76.1017C17.0179 75.9298 16.7848 75.8333 16.5417 75.8333Z" fill="#36C455"/>
<path d="M84.8327 75.8333H83.4577C83.2146 75.8333 82.9814 75.9298 82.8095 76.1017C82.6376 76.2736 82.541 76.5068 82.541 76.7499C82.541 76.993 82.6376 77.2262 82.8095 77.3981C82.9814 77.57 83.2146 77.6666 83.4577 77.6666H84.8327C85.0758 77.6666 85.309 77.57 85.4809 77.3981C85.6528 77.2262 85.7493 76.993 85.7493 76.7499C85.7493 76.5068 85.6528 76.2736 85.4809 76.1017C85.309 75.9298 85.0758 75.8333 84.8327 75.8333Z" fill="#36C455"/>
<path d="M87.5827 77.6666C88.0889 77.6666 88.4993 77.2562 88.4993 76.7499C88.4993 76.2437 88.0889 75.8333 87.5827 75.8333C87.0764 75.8333 86.666 76.2437 86.666 76.7499C86.666 77.2562 87.0764 77.6666 87.5827 77.6666Z" fill="#36C455"/>
<path d="M34.1617 14.6553C34.1786 14.5259 34.2213 14.4012 34.2873 14.2886C34.3533 14.1761 34.4413 14.0779 34.5459 14C34.6506 13.9221 34.7699 13.866 34.8967 13.8351C35.0234 13.8042 35.1551 13.7991 35.2839 13.8201C38.0647 14.2278 41.0849 14.7384 44.2614 15.3341C44.5028 15.3805 44.7183 15.5151 44.8659 15.7117C45.0135 15.9082 45.0826 16.1526 45.0599 16.3974C45.0372 16.6421 44.9242 16.8697 44.743 17.0357C44.5617 17.2017 44.3251 17.2943 44.0793 17.2955C44.0182 17.2953 43.9573 17.2894 43.8973 17.2777C40.9388 16.7183 37.9695 16.2181 34.991 15.7775C34.7326 15.7379 34.5003 15.5977 34.3449 15.3874C34.1896 15.1771 34.1237 14.9139 34.1617 14.6553ZM29.9184 14.7978C30.1141 14.7978 30.3055 14.7397 30.4682 14.631C30.6309 14.5223 30.7578 14.3677 30.8327 14.1869C30.9076 14.0061 30.9272 13.8071 30.889 13.6151C30.8508 13.4232 30.7565 13.2468 30.6182 13.1084C30.4798 12.9701 30.3034 12.8758 30.1115 12.8376C29.9195 12.7994 29.7205 12.819 29.5397 12.8939C29.3589 12.9688 29.2043 13.0957 29.0956 13.2584C28.9869 13.4211 28.9288 13.6125 28.9288 13.8082C28.9288 14.0706 29.0331 14.3223 29.2187 14.5079C29.4043 14.6935 29.656 14.7978 29.9184 14.7978ZM78.7642 47.9211C78.5685 47.9211 78.3772 47.9791 78.2145 48.0879C78.0517 48.1966 77.9249 48.3512 77.85 48.532C77.7751 48.7128 77.7555 48.9118 77.7937 49.1037C77.8319 49.2957 77.9261 49.472 78.0645 49.6104C78.2029 49.7488 78.3792 49.8431 78.5712 49.8813C78.7631 49.9194 78.9621 49.8998 79.1429 49.8249C79.3238 49.75 79.4783 49.6232 79.5871 49.4605C79.6958 49.2977 79.7538 49.1064 79.7538 48.9107C79.7538 48.6482 79.6496 48.3965 79.464 48.2109C79.2784 48.0254 79.0267 47.9211 78.7642 47.9211ZM78.7642 54.3376C78.5685 54.3376 78.3772 54.3956 78.2145 54.5043C78.0517 54.6131 77.9249 54.7676 77.85 54.9484C77.7751 55.1293 77.7555 55.3282 77.7937 55.5202C77.8319 55.7122 77.9261 55.8885 78.0645 56.0269C78.2029 56.1653 78.3792 56.2595 78.5712 56.2977C78.7631 56.3359 78.9621 56.3163 79.1429 56.2414C79.3238 56.1665 79.4783 56.0397 79.5871 55.8769C79.6958 55.7142 79.7538 55.5229 79.7538 55.3271C79.7538 55.0647 79.6496 54.813 79.464 54.6274C79.2784 54.4418 79.0267 54.3376 78.7642 54.3376ZM77.7747 60.754C77.5789 60.754 77.3876 60.8121 77.2249 60.9208C77.0621 61.0295 76.9353 61.1841 76.8604 61.3649C76.7855 61.5457 76.7659 61.7447 76.8041 61.9367C76.8423 62.1286 76.9365 62.3049 77.0749 62.4433C77.2133 62.5817 77.3896 62.676 77.5816 62.7142C77.7736 62.7524 77.9725 62.7328 78.1534 62.6579C78.3342 62.583 78.4887 62.4561 78.5975 62.2934C78.7062 62.1306 78.7642 61.9393 78.7642 61.7436C78.7648 61.6133 78.7396 61.4842 78.6901 61.3637C78.6406 61.2432 78.5677 61.1336 78.4758 61.0413C78.3839 60.949 78.2746 60.8757 78.1543 60.8258C78.034 60.7758 77.905 60.7501 77.7747 60.7501V60.754ZM67.5067 36.0995L55.1706 42.7713C54.3127 43.2297 53.3302 43.4002 52.368 43.2577C51.4059 43.1151 50.515 42.6671 49.8269 41.9796L36.2795 28.3749C36.0942 28.1888 35.8425 28.0839 35.5799 28.0834C35.3173 28.0828 35.0653 28.1866 34.8792 28.3719C34.6931 28.5572 34.5883 28.8088 34.5877 29.0714C34.5871 29.334 34.6909 29.5861 34.8762 29.7721L48.4236 43.3769C49.4134 44.3658 50.6946 45.0108 52.0785 45.2167C53.4624 45.4226 54.8759 45.1787 56.1107 44.5209L68.4488 37.8491C68.5632 37.7873 68.6642 37.7035 68.7462 37.6026C68.8282 37.5017 68.8895 37.3856 68.9266 37.261C68.9638 37.1364 68.976 37.0057 68.9626 36.8764C68.9492 36.747 68.9105 36.6216 68.8486 36.5072C68.7868 36.3929 68.703 36.2918 68.6021 36.2099C68.5012 36.1279 68.3851 36.0666 68.2605 36.0294C68.1359 35.9923 68.0052 35.9801 67.8759 35.9935C67.7465 36.0069 67.6211 36.0456 67.5067 36.1075V36.0995ZM91.2726 35.6681L86.7858 37.6235L89.3884 39.0485C89.5775 39.152 89.7276 39.3143 89.816 39.5109C89.9044 39.7075 89.9261 39.9276 89.878 40.1377C89.8298 40.3478 89.7144 40.5364 89.5492 40.6749C89.384 40.8134 89.1782 40.8942 88.9629 40.905C88.7887 40.905 86.0535 41.0455 83.5697 41.0455C82.4593 41.0656 81.3487 41.0153 80.2447 40.8951C79.9851 40.8562 79.7516 40.7159 79.5955 40.5048C79.4394 40.2938 79.3736 40.0295 79.4124 39.7699C79.4513 39.5103 79.5916 39.2768 79.8026 39.1208C80.0136 38.9647 80.278 38.8988 80.5376 38.9377C82.1095 39.0779 83.689 39.1149 85.2658 39.0485L82.5464 37.5602C82.3222 37.431 82.1575 37.2192 82.0875 36.9702C82.0176 36.7211 82.048 36.4545 82.1722 36.2275C82.2964 36.0005 82.5046 35.8313 82.7521 35.7559C82.9996 35.6806 83.2668 35.7052 83.4964 35.8244L84.5889 36.4182L87.3202 35.2307C84.7888 34.5869 82.2924 33.8126 79.8409 32.9111C78.1139 35.2366 76.2689 37.472 74.3131 39.6086C74.327 40.05 74.3309 40.4854 74.3388 40.9228L81.351 41.7738C81.6135 41.7893 81.859 41.9084 82.0337 42.1049C82.2083 42.3015 82.2977 42.5593 82.2822 42.8218C82.2667 43.0842 82.1476 43.3298 81.9511 43.5044C81.7546 43.6791 81.4967 43.7685 81.2342 43.753H81.1135L74.3527 42.9316C74.3087 49.3444 73.7701 55.7442 72.7416 62.0741C72.6155 62.8092 72.2046 63.4649 71.598 63.8988C70.9914 64.3327 70.2381 64.5098 69.5017 64.3917C55.3164 62.1957 41.3709 58.661 27.8522 53.8349C27.1609 53.5734 26.5996 53.0516 26.2885 52.3812C25.9773 51.7109 25.9412 50.9453 26.1877 50.2486C27.4072 45.4422 27.9855 40.4956 27.9076 35.5375L19.3022 33.5167C19.1756 33.487 19.0561 33.4326 18.9506 33.3566C18.845 33.2807 18.7554 33.1847 18.687 33.0742C18.6185 32.9636 18.5725 32.8407 18.5516 32.7124C18.5306 32.584 18.5352 32.4528 18.5649 32.3263C18.5947 32.1997 18.6491 32.0802 18.725 31.9747C18.8009 31.8691 18.8969 31.7795 19.0075 31.7111C19.118 31.6426 19.241 31.5966 19.3693 31.5757C19.4976 31.5547 19.6288 31.5593 19.7554 31.589L27.9333 33.5108V32.8478C25.7278 29.5636 23.7937 26.1051 22.1502 22.5066C20.7648 22.2988 17.0954 21.7407 14.0574 21.236L18.3878 24.5016C18.5429 24.619 18.66 24.7795 18.7245 24.963C18.7889 25.1466 18.7978 25.345 18.7501 25.5336C18.7024 25.7222 18.6001 25.8925 18.4561 26.0233C18.3121 26.1541 18.1328 26.2396 17.9405 26.269L16.1216 26.5481L20.7667 28.9369C20.8861 28.994 20.9929 29.0745 21.0806 29.1736C21.1684 29.2727 21.2354 29.3883 21.2776 29.5138C21.3199 29.6392 21.3366 29.7718 21.3267 29.9038C21.3168 30.0358 21.2805 30.1644 21.22 30.2821C21.1595 30.3998 21.0759 30.5042 20.9744 30.5891C20.8728 30.674 20.7553 30.7376 20.6287 30.7762C20.5021 30.8148 20.369 30.8277 20.2374 30.814C20.1057 30.8003 19.9782 30.7603 19.8623 30.6964L12.5017 26.9063C12.3157 26.8107 12.1647 26.6587 12.0705 26.4719C11.9763 26.2852 11.9436 26.0734 11.9773 25.867C12.0109 25.6605 12.1091 25.4701 12.2577 25.3229C12.4064 25.1757 12.5978 25.0795 12.8046 25.0479L15.3221 24.6639L9.53299 20.2959C9.35091 20.1588 9.22174 19.963 9.1673 19.7417C9.11287 19.5204 9.13652 19.287 9.23424 19.0811C9.33197 18.8752 9.49778 18.7093 9.70367 18.6115C9.90955 18.5137 10.1429 18.49 10.3642 18.5443C12.4463 19.053 22.8884 20.6145 22.9953 20.6304C23.1628 20.6557 23.321 20.7236 23.4548 20.8275C23.5885 20.9315 23.6934 21.068 23.7592 21.2241C24.9566 23.9512 26.3455 26.5901 27.9155 29.121C27.8621 26.1325 27.7492 23.611 27.6721 22.1504C27.6497 21.7374 27.7184 21.3247 27.8734 20.9413C28.0283 20.5578 28.2657 20.2132 28.5686 19.9317C28.8687 19.651 29.227 19.4399 29.6181 19.3137C30.0091 19.1874 30.4232 19.1491 30.8308 19.2014C44.5255 21.1879 58.0823 24.0303 71.4215 27.7118C71.9444 27.856 72.4146 28.1477 72.7761 28.552C73.1376 28.9563 73.3751 29.4562 73.4601 29.9918C73.8021 32.2413 74.0411 34.5052 74.1765 36.7764C75.7712 35.0155 77.2476 33.151 78.596 31.1952C78.7156 30.9996 78.8994 30.8517 79.116 30.7766C79.3326 30.7015 79.5685 30.704 79.7835 30.7835C83.3366 32.2103 87.0454 33.2134 90.8332 33.772C91.0665 33.7504 91.2994 33.818 91.4849 33.9612C91.6703 34.1045 91.7946 34.3127 91.8327 34.5439C91.8838 34.7672 91.856 35.0012 91.7538 35.2062C91.6517 35.4112 91.4816 35.5745 91.2726 35.6681ZM71.5047 30.2966C71.4796 30.1361 71.4084 29.9864 71.2999 29.8655C71.1913 29.7446 71.05 29.6579 70.8931 29.6158C57.6431 25.9619 44.1777 23.14 30.5755 21.1667C30.5399 21.1639 30.5042 21.1639 30.4686 21.1667C30.3551 21.1681 30.2431 21.1926 30.1393 21.2385C30.0355 21.2844 29.9422 21.351 29.8648 21.434C29.7875 21.5171 29.7278 21.615 29.6894 21.7218C29.651 21.8286 29.6346 21.9421 29.6413 22.0554C29.9718 28.3452 30.4805 43.7431 28.058 50.8918C28.017 50.9951 27.9968 51.1055 27.9986 51.2166C28.0004 51.3277 28.0242 51.4373 28.0685 51.5392C28.1128 51.6411 28.1769 51.7333 28.2569 51.8103C28.337 51.8874 28.4315 51.9479 28.535 51.9883C41.9309 56.7703 55.7499 60.2719 69.8065 62.4462C70.03 62.4836 70.2591 62.4315 70.4444 62.3011C70.6296 62.1707 70.756 61.9725 70.7961 61.7495C72.573 51.3567 72.8104 40.7591 71.5047 30.2966ZM43.448 71.4376C38.4614 74.747 32.8766 77.0509 27.0071 78.2202C26.7596 78.2554 26.5347 78.3829 26.3774 78.5772C26.2202 78.7714 26.1422 79.018 26.1593 79.2673C26.1763 79.5167 26.2871 79.7503 26.4693 79.9214C26.6515 80.0924 26.8917 80.1882 27.1416 80.1894C27.1873 80.189 27.2329 80.1856 27.2782 80.1795C33.4568 78.9835 39.334 76.5644 44.5642 73.0644C44.6755 72.993 44.7714 72.9 44.8461 72.7908C44.9208 72.6817 44.9729 72.5588 44.9993 72.4292C45.0257 72.2996 45.0258 72.166 44.9997 72.0364C44.9736 71.9067 44.9218 71.7836 44.8473 71.6744C44.7728 71.5651 44.6772 71.4719 44.566 71.4002C44.4549 71.3285 44.3306 71.2798 44.2003 71.257C44.07 71.2342 43.9365 71.2377 43.8077 71.2673C43.6788 71.297 43.5572 71.3522 43.45 71.4296L43.448 71.4376ZM33.0138 66.4006C33.1545 66.1861 33.2065 65.9254 33.1587 65.6734C33.1109 65.4214 32.9672 65.1978 32.7577 65.0498C32.5483 64.9017 32.2896 64.8407 32.0361 64.8797C31.7826 64.9186 31.5541 65.0545 31.3988 65.2586C28.076 69.4914 23.872 72.9505 19.0785 75.3959C18.9589 75.4527 18.8519 75.5328 18.7638 75.6317C18.6757 75.7306 18.6084 75.8462 18.5658 75.9715C18.5231 76.0969 18.5061 76.2296 18.5157 76.3616C18.5253 76.4937 18.5613 76.6225 18.6216 76.7404C18.6819 76.8583 18.7652 76.9629 18.8666 77.048C18.9681 77.1331 19.0856 77.197 19.2122 77.2359C19.3387 77.2748 19.4718 77.2879 19.6036 77.2744C19.7353 77.2609 19.863 77.2211 19.979 77.1574C25.0713 74.5844 29.5246 70.9067 33.0138 66.3927V66.4006ZM25.1684 58.9451C25.249 58.6952 25.227 58.4236 25.1073 58.1899C24.9876 57.9563 24.78 57.7798 24.5301 57.6992C24.2803 57.6186 24.0086 57.6406 23.775 57.7603C23.5413 57.88 23.3648 58.0876 23.2842 58.3375C23.2842 58.3691 22.1581 61.5714 16.7075 66.4263C16.5114 66.6008 16.3927 66.8461 16.3775 67.1082C16.3623 67.3702 16.4518 67.6275 16.6263 67.8236C16.8009 68.0196 17.0461 68.1383 17.3082 68.1536C17.5702 68.1688 17.8276 68.0793 18.0236 67.9047C23.9512 62.6303 25.1268 59.0915 25.1684 58.9451Z" fill="white"/>
<path d="M29.056 27.2499C29.056 27.0686 29.0022 26.8914 28.9015 26.7406C28.8008 26.5899 28.6576 26.4724 28.4901 26.403C28.3226 26.3336 28.1383 26.3155 27.9605 26.3509C27.7827 26.3862 27.6193 26.4735 27.4911 26.6017C27.3629 26.7299 27.2756 26.8933 27.2403 27.0711C27.2049 27.2489 27.2231 27.4332 27.2924 27.6007C27.3618 27.7682 27.4793 27.9114 27.6301 28.0121C27.7808 28.1128 27.958 28.1666 28.1393 28.1666C28.3824 28.1663 28.6153 28.0696 28.7872 27.8978C28.959 27.7259 29.0557 27.4929 29.056 27.2499ZM27.681 27.2499C27.681 27.1593 27.7079 27.0707 27.7582 26.9953C27.8086 26.9199 27.8802 26.8612 27.9639 26.8265C28.0477 26.7918 28.1398 26.7827 28.2287 26.8004C28.3176 26.8181 28.3993 26.8617 28.4634 26.9258C28.5275 26.9899 28.5712 27.0716 28.5889 27.1605C28.6065 27.2494 28.5975 27.3416 28.5628 27.4253C28.5281 27.5091 28.4693 27.5806 28.394 27.631C28.3186 27.6814 28.23 27.7083 28.1393 27.7083C28.0178 27.7081 27.9013 27.6598 27.8154 27.5739C27.7294 27.4879 27.6811 27.3714 27.681 27.2499Z" fill="#36C455"/>
<path d="M16.4908 39.6301L17.1723 38.7341L16.742 38.4902L16.3043 39.494H16.2901L15.8455 38.4971L15.4078 38.7483L16.082 39.6232V39.6374L15.0273 39.5013V39.989L16.0888 39.8529V39.8671L15.4078 40.7416L15.8161 41.0001L16.2827 39.989H16.2969L16.7273 40.9927L17.1792 40.7347L16.4908 39.8739V39.8597L17.5734 39.989V39.5013L16.4908 39.6443V39.6301Z" fill="white"/>
<path d="M19.3282 13.989L18.9359 14.4927L19.1715 14.6412L19.44 14.0591H19.4478L19.6958 14.637L19.9561 14.4885L19.5597 13.9926V13.9844L20.183 14.0591V13.7781L19.5597 13.8606V13.8524L19.952 13.3363L19.7045 13.196L19.4524 13.774H19.4442L19.188 13.1997L18.9359 13.3445L19.3241 13.8483V13.8565L18.7168 13.7781V14.0591L19.3282 13.9807V13.989Z" fill="white"/>
<path d="M86.806 19.3268V18.8488L85.7441 18.9895V18.9753L86.4123 18.0962L85.9902 17.8569L85.5612 18.8414H85.547L85.1111 17.8638L84.6817 18.1104L85.3431 18.9684V18.9826L84.3086 18.8488V19.3268L85.3499 19.1934V19.2076L84.6817 20.0656L85.0827 20.3191L85.5401 19.3268H85.5539L85.976 20.3118L86.4192 20.0588L85.7441 19.2145V19.2003L86.806 19.3268Z" fill="white"/>
<path d="M65.0094 16.977L65.586 16.2185L65.2217 16.0122L64.8518 16.8615H64.8394L64.4636 16.0182L64.0928 16.2308L64.6634 16.971V16.983L63.7715 16.8679V17.2804L64.6694 17.1649V17.1773L64.0928 17.9175L64.4388 18.1361L64.8334 17.2804H64.8454L65.2097 18.1297L65.592 17.9115L65.0094 17.1832V17.1709L65.9252 17.2804V16.8679L65.0094 16.9889V16.977Z" fill="white"/>
</g>
<defs>
<clipPath id="clip0_382_1833">
<rect width="77" height="77" fill="white" transform="translate(11.5 8)"/>
</clipPath>
</defs>
</svg>
