<svg width="48" height="48" viewBox="0 0 48 48" fill="none" xmlns="http://www.w3.org/2000/svg">
<circle cx="24" cy="24" r="23.75" stroke="#0A8625" stroke-width="0.5"/>
<path d="M29.5491 21.0529V25.9729C29.5491 27.4435 28.9649 28.8539 27.925 29.8938C26.8851 30.9337 25.4747 31.5179 24.0041 31.5179C22.5335 31.5179 21.1231 30.9337 20.0832 29.8938C19.0433 28.8539 18.4591 27.4435 18.4591 25.9729V21.0529H12.3291V25.9729C12.3291 29.068 13.5586 32.0363 15.7472 34.2249C17.9357 36.4134 20.904 37.6429 23.9991 37.6429C27.0942 37.6429 30.0625 36.4134 32.251 34.2249C34.4396 32.0363 35.6691 29.068 35.6691 25.9729V21.0529H29.5491ZM34.5891 25.9729C34.5891 28.7816 33.4734 31.4752 31.4874 33.4612C29.5014 35.4472 26.8077 36.5629 23.9991 36.5629C21.1905 36.5629 18.4969 35.4472 16.5108 33.4612C14.5248 31.4752 13.4091 28.7816 13.4091 25.9729V25.6729H17.3791V25.9729C17.3791 26.8429 17.5505 27.7044 17.8834 28.5082C18.2163 29.312 18.7043 30.0423 19.3195 30.6575C19.9347 31.2727 20.665 31.7607 21.4688 32.0936C22.2726 32.4266 23.1341 32.5979 24.0041 32.5979C24.8741 32.5979 25.7356 32.4266 26.5394 32.0936C27.3432 31.7607 28.0735 31.2727 28.6887 30.6575C29.3039 30.0423 29.7919 29.312 30.1248 28.5082C30.4577 27.7044 30.6291 26.8429 30.6291 25.9729V25.6729H34.5891V25.9729ZM33.2001 15.1159C33.6209 14.7538 33.9207 14.2717 34.0594 13.7341C34.1981 13.1966 34.1689 12.6296 33.9758 12.1091C33.7827 11.5887 33.4349 11.1398 32.9792 10.8228C32.5235 10.5058 31.9817 10.3359 31.4266 10.3359C30.8715 10.3359 30.3297 10.5058 29.874 10.8228C29.4183 11.1398 29.0705 11.5887 28.8774 12.1091C28.6843 12.6296 28.6551 13.1966 28.7938 13.7341C28.9325 14.2717 29.2323 14.7538 29.6531 15.1159C28.8286 15.4931 28.1461 16.1237 27.7051 16.9159C27.2701 16.127 26.5956 15.4967 25.7791 15.1159C26.1993 14.7536 26.4987 14.2713 26.6369 13.734C26.7751 13.1966 26.7456 12.6297 26.5523 12.1096C26.3591 11.5895 26.0113 11.1409 25.5557 10.8242C25.1001 10.5074 24.5585 10.3377 24.0036 10.3377C23.4487 10.3377 22.9071 10.5074 22.4515 10.8242C21.9959 11.1409 21.6481 11.5895 21.4549 12.1096C21.2616 12.6297 21.2321 13.1966 21.3703 13.734C21.5085 14.2713 21.8079 14.7536 22.2281 15.1159C21.4118 15.497 20.7374 16.1272 20.3021 16.9159C19.8613 16.1239 19.1792 15.4933 18.3551 15.1159C18.7754 14.7538 19.0749 14.2718 19.2132 13.7345C19.3516 13.1973 19.3222 12.6306 19.1291 12.1105C18.936 11.5904 18.5883 11.1419 18.1328 10.8252C17.6774 10.5085 17.1359 10.3387 16.5811 10.3387C16.0263 10.3387 15.4848 10.5085 15.0294 10.8252C14.5739 11.1419 14.2262 11.5904 14.0331 12.1105C13.84 12.6306 13.8106 13.1973 13.949 13.7345C14.0873 14.2718 14.3868 14.7538 14.8071 15.1159C14.0699 15.4539 13.4449 15.9959 13.006 16.6778C12.567 17.3597 12.3325 18.153 12.3301 18.9639V19.4999H35.6711V18.9609C35.6687 18.1511 35.4347 17.3589 34.9969 16.6777C34.5591 15.9964 33.9357 15.4546 33.2001 15.1159ZM16.5801 11.4349C16.9045 11.4349 17.2216 11.5311 17.4913 11.7114C17.7611 11.8916 17.9713 12.1478 18.0954 12.4476C18.2195 12.7473 18.2519 13.0771 18.1885 13.3952C18.1252 13.7134 17.9689 14.0056 17.7394 14.2349C17.5099 14.4642 17.2176 14.6204 16.8994 14.6835C16.5812 14.7467 16.2515 14.7141 15.9518 14.5898C15.6522 14.4655 15.3961 14.2552 15.216 13.9853C15.0359 13.7155 14.9399 13.3983 14.9401 13.0739C14.9406 12.6392 15.1136 12.2225 15.4211 11.9152C15.7286 11.6079 16.1454 11.4352 16.5801 11.4349ZM13.4541 18.4249C13.5816 17.6884 13.9651 17.0207 14.5369 16.5393C15.1087 16.058 15.8322 15.7941 16.5796 15.7941C17.327 15.7941 18.0505 16.058 18.6223 16.5393C19.1941 17.0207 19.5776 17.6884 19.7051 18.4249H13.4541ZM24.0001 11.4349C24.3245 11.4349 24.6416 11.5311 24.9113 11.7114C25.1811 11.8916 25.3913 12.1478 25.5154 12.4476C25.6395 12.7473 25.6719 13.0771 25.6085 13.3952C25.5452 13.7134 25.3889 14.0056 25.1594 14.2349C24.9299 14.4642 24.6376 14.6204 24.3194 14.6835C24.0012 14.7467 23.6715 14.7141 23.3718 14.5898C23.0722 14.4655 22.8161 14.2552 22.636 13.9853C22.4559 13.7155 22.3599 13.3983 22.3601 13.0739C22.3606 12.6392 22.5336 12.2225 22.8411 11.9152C23.1486 11.6079 23.5654 11.4352 24.0001 11.4349ZM20.8831 18.4249C21.008 17.6887 21.3894 17.0205 21.9598 16.5386C22.5303 16.0568 23.2529 15.7925 23.9996 15.7925C24.7463 15.7925 25.4689 16.0568 26.0394 16.5386C26.6098 17.0205 26.9912 17.6887 27.1161 18.4249H20.8831ZM31.4211 11.4349C31.7455 11.4351 32.0625 11.5315 32.3321 11.7119C32.6017 11.8922 32.8117 12.1485 32.9356 12.4482C33.0596 12.748 33.0919 13.0778 33.0284 13.3959C32.9649 13.7139 32.8085 14.0061 32.579 14.2353C32.3496 14.4645 32.0572 14.6205 31.7391 14.6836C31.4209 14.7467 31.0912 14.714 30.7916 14.5897C30.492 14.4654 30.236 14.255 30.0559 13.9852C29.8759 13.7154 29.7799 13.3983 29.7801 13.0739C29.7806 12.6389 29.9539 12.2218 30.2618 11.9145C30.5697 11.6072 30.9871 11.4347 31.4221 11.4349H31.4211ZM28.3001 18.4249C28.4276 17.6884 28.8111 17.0207 29.3829 16.5393C29.9547 16.058 30.6782 15.7941 31.4256 15.7941C32.173 15.7941 32.8965 16.058 33.4683 16.5393C34.0401 17.0207 34.4236 17.6884 34.5511 18.4249H28.3001Z" fill="#0A8625"/>
</svg>
