<svg width="43" height="42" viewBox="0 0 43 42" fill="none" xmlns="http://www.w3.org/2000/svg">
<circle cx="21.5" cy="21" r="20.25" stroke="#0A8625" stroke-width="1.5"/>
<path d="M23.5 17.1992C23.5 14.4378 21.2614 12.1992 18.5 12.1992C15.7386 12.1992 13.5 14.4378 13.5 17.1992C13.5 19.9606 15.7386 22.1992 18.5 22.1992C21.2614 22.1992 23.5 19.9606 23.5 17.1992Z" stroke="#0A8625" stroke-width="1.5" stroke-linecap="round" stroke-linejoin="round"/>
<path d="M25.5 29.1992C25.5 25.3332 22.366 22.1992 18.5 22.1992C14.634 22.1992 11.5 25.3332 11.5 29.1992" stroke="#0A8625" stroke-width="1.5" stroke-linecap="round" stroke-linejoin="round"/>
<path d="M28.5 23.1992C28.5 23.1992 31.5 21.8757 31.5 19.727C31.5 18.8832 30.8684 18.1992 30 18.1992C29.2895 18.1992 28.8158 18.4933 28.5 19.0816C28.1842 18.4933 27.7105 18.1992 27 18.1992C26.1316 18.1992 25.5 18.8832 25.5 19.727C25.5 21.8757 28.5 23.1992 28.5 23.1992Z" stroke="#0A8625" stroke-width="1.5" stroke-linecap="round" stroke-linejoin="round"/>
</svg>
