<svg width="86" height="86" viewBox="0 0 86 86" fill="none" xmlns="http://www.w3.org/2000/svg">
<circle cx="43" cy="43" r="42.5521" fill="white" stroke="#075F1A" stroke-width="0.895833"/>
<path d="M46.75 55H35.5C34.9844 55 34.5625 55.4219 34.5625 55.9375C34.5625 56.4531 34.9844 56.875 35.5 56.875H46.75C47.2656 56.875 47.6875 56.4531 47.6875 55.9375C47.6875 55.4219 47.2656 55 46.75 55ZM41.125 58.75H35.5C34.9844 58.75 34.5625 59.1719 34.5625 59.6875C34.5625 60.2031 34.9844 60.625 35.5 60.625H41.125C41.6406 60.625 42.0625 60.2031 42.0625 59.6875C42.0625 59.1719 41.6406 58.75 41.125 58.75Z" fill="#0A8625"/>
<path d="M66.4375 28.75H56.0312C55.6 26.6125 53.7062 25 51.4375 25H50.0125C50.9125 23.6594 51.4375 22.0469 51.4375 20.3125C51.4375 15.6625 47.65 11.875 43 11.875C38.35 11.875 34.5625 15.6625 34.5625 20.3125C34.5625 22.0469 35.0875 23.6594 35.9875 25H34.5625C32.3031 25 30.4094 26.6125 29.9688 28.75H19.5625C16.975 28.75 14.875 30.85 14.875 33.4375V63.4375C14.875 66.025 16.975 68.125 19.5625 68.125H36.4375C38.6969 68.125 40.5906 66.5125 41.0312 64.375H44.9687C45.4 66.5125 47.2938 68.125 49.5625 68.125H66.4375C69.025 68.125 71.125 66.025 71.125 63.4375V33.4375C71.125 30.85 69.025 28.75 66.4375 28.75ZM69.25 33.4375V55H67.375V50.3125C67.375 47.725 65.275 45.625 62.6875 45.625H62.1812C63.0719 44.6312 63.625 43.3188 63.625 41.875V40C63.625 36.8969 61.1031 34.375 58 34.375C57.3531 34.375 56.7156 34.4875 56.125 34.7031V30.625H66.4375C67.9844 30.625 69.25 31.8906 69.25 33.4375ZM62.6875 51.25C62.1719 51.25 61.75 51.6719 61.75 52.1875V55H56.125V47.5H62.6875C64.2344 47.5 65.5 48.7656 65.5 50.3125V55H63.625V52.1875C63.625 51.6719 63.2031 51.25 62.6875 51.25ZM34.5625 62.5C33.0156 62.5 31.75 61.2344 31.75 59.6875V53.125H54.25V59.6875C54.25 61.2344 52.9844 62.5 51.4375 62.5H34.5625ZM23.3125 51.25C22.7969 51.25 22.375 51.6719 22.375 52.1875V55H20.5V50.3125C20.5 48.7656 21.7656 47.5 23.3125 47.5H29.875V55H24.25V52.1875C24.25 51.6719 23.8281 51.25 23.3125 51.25ZM24.25 41.875V41.7625C25.0281 41.6125 26.1344 41.2375 27.025 40.3188C27.6531 40.6844 28.6375 41.1625 29.875 41.4906V45.1094C29.3125 45.4375 28.675 45.6156 28 45.6156C25.9281 45.6156 24.25 43.9375 24.25 41.8656V41.875ZM29.875 39.5406C28.3562 39.0531 27.4187 38.3312 27.4094 38.3219C27.2031 38.1531 26.9312 38.0875 26.6687 38.1344C26.4062 38.1812 26.1719 38.3312 26.0312 38.5656C25.5719 39.2969 24.85 39.6531 24.2688 39.8312C24.3625 37.8438 25.9937 36.25 28 36.25C28.675 36.25 29.3125 36.4281 29.875 36.7563V39.5406ZM39.25 38.125V38.0125C40.0281 37.8625 41.1344 37.4875 42.025 36.5688C42.9344 37.1125 44.5938 37.9 46.75 38.0781V38.1156C46.75 40.1875 45.0719 41.8656 43 41.8656C40.9281 41.8656 39.25 40.1875 39.25 38.1156V38.125ZM39.2688 36.0812C39.3625 34.0938 40.9937 32.5 43 32.5C45.0063 32.5 46.7125 34.15 46.7406 36.1938C44.1438 35.9125 42.4281 34.6 42.4094 34.5812C42.2031 34.4125 41.9312 34.3469 41.6688 34.3938C41.4062 34.4406 41.1719 34.5906 41.0312 34.825C40.5719 35.5562 39.85 35.9125 39.2688 36.0906V36.0812ZM47.6875 43.75C49.2344 43.75 50.5 45.0156 50.5 46.5625V51.25H48.625V48.4375C48.625 47.9219 48.2031 47.5 47.6875 47.5C47.1719 47.5 46.75 47.9219 46.75 48.4375V51.25H39.25V48.4375C39.25 47.9219 38.8281 47.5 38.3125 47.5C37.7969 47.5 37.375 47.9219 37.375 48.4375V51.25H35.5V46.5625C35.5 45.0156 36.7656 43.75 38.3125 43.75H47.6875ZM58 45.625C57.325 45.625 56.6875 45.4469 56.125 45.1187V41.5C57.3625 41.1719 58.3469 40.6937 58.975 40.3281C59.8656 41.2469 60.9813 41.6219 61.75 41.7719V41.8844C61.75 43.9562 60.0719 45.6344 58 45.6344V45.625ZM59.9688 38.5656C59.8281 38.3406 59.5938 38.1812 59.3312 38.1344C59.0687 38.0875 58.7969 38.1625 58.5906 38.3219C58.5812 38.3219 57.6531 39.0438 56.125 39.5406V36.7563C56.6875 36.4281 57.325 36.25 58 36.25C60.0062 36.25 61.6375 37.8438 61.7313 39.8312C61.1406 39.6531 60.4281 39.3062 59.9688 38.5656ZM43 13.75C46.6187 13.75 49.5625 16.6937 49.5625 20.3125C49.5625 23.9312 46.6187 26.875 43 26.875C39.3813 26.875 36.4375 23.9312 36.4375 20.3125C36.4375 16.6937 39.3813 13.75 43 13.75ZM34.5625 26.875H37.7125C39.1656 28.0469 41.0031 28.75 43 28.75C44.9969 28.75 46.8438 28.0469 48.2875 26.875H51.4375C52.9844 26.875 54.25 28.1406 54.25 29.6875V51.25H52.375V46.5625C52.375 43.975 50.275 41.875 47.6875 41.875H47.1812C48.0719 40.8813 48.625 39.5688 48.625 38.125V36.25C48.625 33.1469 46.1031 30.625 43 30.625C39.8969 30.625 37.375 33.1469 37.375 36.25V38.125C37.375 39.5688 37.9281 40.8813 38.8188 41.875H38.3125C35.725 41.875 33.625 43.975 33.625 46.5625V51.25H31.75V29.6875C31.75 28.1406 33.0156 26.875 34.5625 26.875ZM16.75 33.4375C16.75 31.8906 18.0156 30.625 19.5625 30.625H29.875V34.7031C29.2844 34.4969 28.6469 34.375 28 34.375C24.8969 34.375 22.375 36.8969 22.375 40V41.875C22.375 43.3188 22.9281 44.6312 23.8188 45.625H23.3125C20.725 45.625 18.625 47.725 18.625 50.3125V55H16.75V33.4375ZM36.4375 66.25H19.5625C18.0156 66.25 16.75 64.9844 16.75 63.4375V56.875H29.875V59.6875C29.875 62.275 31.975 64.375 34.5625 64.375H39.0812C38.6969 65.4625 37.6656 66.25 36.4375 66.25ZM66.4375 66.25H49.5625C48.3438 66.25 47.3125 65.4625 46.9188 64.375H51.4375C54.025 64.375 56.125 62.275 56.125 59.6875V56.875H69.25V63.4375C69.25 64.9844 67.9844 66.25 66.4375 66.25Z" fill="#0A8625"/>
<path d="M41.3971 23.0873C41.5846 23.2748 41.8189 23.3592 42.0627 23.3592C42.3064 23.3592 42.5408 23.2654 42.7283 23.0873L46.9471 18.8686C47.3127 18.5029 47.3127 17.9123 46.9471 17.5467C46.5814 17.1811 45.9908 17.1811 45.6252 17.5467L42.0721 21.0998L40.3939 19.4217C40.0283 19.0561 39.4377 19.0561 39.0721 19.4217C38.7064 19.7873 38.7064 20.3779 39.0721 20.7436L41.4158 23.0873H41.3971Z" fill="#0A8625"/>
</svg>
