<svg width="43" height="42" viewBox="0 0 43 42" fill="none" xmlns="http://www.w3.org/2000/svg">
<circle cx="21.5" cy="21" r="20.25" stroke="#0A8625" stroke-width="1.5"/>
<path d="M30.5 30.6992V16.1841C30.5 15.0866 30.5 14.5378 30.1845 14.0747C29.8689 13.6116 29.2876 13.3072 28.1251 12.6984L26.6459 11.9238C24.8209 10.9681 23.9084 10.4903 23.2042 10.7863C22.5 11.0824 22.5 11.9438 22.5 13.6667V17.6992" stroke="#0A8625" stroke-width="1.5" stroke-linejoin="round"/>
<path d="M31.5 30.6992H11.5" stroke="#0A8625" stroke-width="1.5" stroke-linecap="round" stroke-linejoin="round"/>
<path d="M30.5 16.6992H28.5M30.5 19.6992H28.5M30.5 22.6992H28.5" stroke="#0A8625" stroke-width="1.5" stroke-linecap="round" stroke-linejoin="round"/>
<path d="M17.5 21.6992C17.5 19.8136 17.5 18.8708 18.0858 18.285C18.6716 17.6992 19.6144 17.6992 21.5 17.6992C23.3856 17.6992 24.3284 17.6992 24.9142 18.285C25.5 18.8708 25.5 19.8136 25.5 21.6992V30.6992H17.5V21.6992Z" stroke="#0A8625" stroke-width="1.5" stroke-linejoin="round"/>
<path d="M21 21.6992H22M21 24.6992H22" stroke="#0A8625" stroke-width="1.5" stroke-linecap="round"/>
<path d="M13 24.6992C13.8284 24.6992 14.5 23.8038 14.5 22.6992C14.5 21.5946 13.8284 20.6992 13 20.6992C12.1716 20.6992 11.5 21.5946 11.5 22.6992C11.5 23.8038 12.1716 24.6992 13 24.6992Z" stroke="#0A8625" stroke-width="1.5"/>
<path d="M13 24.6992V30.6992" stroke="#0A8625" stroke-width="1.5" stroke-linecap="round"/>
</svg>
