<svg width="48" height="48" viewBox="0 0 48 48" fill="none" xmlns="http://www.w3.org/2000/svg">
<circle cx="24" cy="24" r="23.75" stroke="#0A8625" stroke-width="0.5"/>
<g clip-path="url(#clip0_308_1331)">
<path d="M21.3863 31.8862L19.125 30.8812V29.9025C19.7175 29.4863 20.1337 28.83 20.2275 28.08C20.8837 27.9188 21.375 27.33 21.375 26.625V25.5C21.375 23.4337 19.6912 21.75 17.625 21.75C15.5587 21.75 13.875 23.4337 13.875 25.5V26.625C13.875 27.33 14.3663 27.9188 15.0225 28.08C15.1163 28.83 15.5325 29.4863 16.125 29.9025V30.8812L13.8637 31.8862C13.1887 32.19 12.75 32.8612 12.75 33.6V34.875C12.75 35.0813 12.9187 35.25 13.125 35.25H22.125C22.3313 35.25 22.5 35.0813 22.5 34.875V33.6C22.5 32.8612 22.0613 32.19 21.3863 31.8862ZM18.375 30.9225L17.625 31.425L16.875 30.9225V30.2662C17.1112 30.3337 17.3625 30.375 17.625 30.375C17.8875 30.375 18.1388 30.3337 18.375 30.2662V30.9225ZM17.625 29.625C16.59 29.625 15.75 28.785 15.75 27.75V26.25H17.25C17.3513 26.25 17.445 26.2087 17.5163 26.1412L18 25.6537L18.4838 26.1412C18.555 26.2087 18.6487 26.25 18.75 26.25H19.5V27.75C19.5 28.785 18.66 29.625 17.625 29.625Z" fill="#0A8625"/>
<path d="M33.75 12.75H19.5C18.6712 12.75 18 13.4212 18 14.25V20.6812C18 20.8875 18.1687 21.0562 18.375 21.0562C18.5813 21.0562 18.75 20.8875 18.75 20.6812V14.25C18.75 13.8375 19.0875 13.5 19.5 13.5H33.75C34.1625 13.5 34.5 13.8375 34.5 14.25V33.75C34.5 34.1625 34.1625 34.5 33.75 34.5H23.625C23.4187 34.5 23.25 34.6688 23.25 34.875C23.25 35.0812 23.4187 35.25 23.625 35.25H33.75C34.5788 35.25 35.25 34.5788 35.25 33.75V14.25C35.25 13.4212 34.5788 12.75 33.75 12.75Z" fill="#0A8625"/>
<path d="M26.4263 23.569C26.4863 23.6065 26.5575 23.6252 26.625 23.6252C26.6925 23.6252 26.7637 23.6065 26.8237 23.569L28.14 22.7477C29.2875 22.0315 30 20.7227 30 19.3315V17.0027C30 16.8527 29.91 16.714 29.7675 16.6577L26.7675 15.409C26.6738 15.3715 26.5725 15.3715 26.4788 15.409L23.4788 16.6577C23.34 16.7177 23.2462 16.8527 23.2462 17.0027V19.3315C23.2462 20.7227 23.9588 22.0315 25.1063 22.7477L26.4225 23.569H26.4263ZM24.8588 18.8627C25.005 18.7165 25.2413 18.7165 25.3875 18.8627L26.2238 19.699L27.8362 17.764C27.9675 17.6065 28.2037 17.584 28.365 17.7152C28.5225 17.8465 28.545 18.0827 28.4138 18.244L26.5388 20.494C26.4713 20.5765 26.3737 20.6252 26.2687 20.629C26.265 20.629 26.2575 20.629 26.2537 20.629C26.1562 20.629 26.0587 20.5915 25.9875 20.5202L24.8625 19.3952C24.7162 19.249 24.7162 19.0127 24.8625 18.8665L24.8588 18.8627ZM22.125 25.5002C22.125 25.7065 22.2937 25.8752 22.5 25.8752H30.75C30.9563 25.8752 31.125 25.7065 31.125 25.5002C31.125 25.294 30.9563 25.1252 30.75 25.1252H22.5C22.2937 25.1252 22.125 25.294 22.125 25.5002ZM22.5 28.1252H30.75C30.9563 28.1252 31.125 27.9565 31.125 27.7502C31.125 27.544 30.9563 27.3752 30.75 27.3752H22.5C22.2937 27.3752 22.125 27.544 22.125 27.7502C22.125 27.9565 22.2937 28.1252 22.5 28.1252ZM31.125 30.0002C31.125 29.794 30.9563 29.6252 30.75 29.6252H22.5C22.2937 29.6252 22.125 29.794 22.125 30.0002C22.125 30.2065 22.2937 30.3752 22.5 30.3752H30.75C30.9563 30.3752 31.125 30.2065 31.125 30.0002ZM25.125 31.8752C24.9188 31.8752 24.75 32.044 24.75 32.2502C24.75 32.4565 24.9188 32.6252 25.125 32.6252H28.125C28.3313 32.6252 28.5 32.4565 28.5 32.2502C28.5 32.044 28.3313 31.8752 28.125 31.8752H25.125Z" fill="#0A8625"/>
</g>
<defs>
<clipPath id="clip0_308_1331">
<rect width="24" height="24" fill="white" transform="translate(12 12)"/>
</clipPath>
</defs>
</svg>
