<svg width="42" height="42" viewBox="0 0 42 42" fill="none" xmlns="http://www.w3.org/2000/svg">
<circle cx="21" cy="21" r="20.25" stroke="#0A8625" stroke-width="1.5"/>
<path d="M26 26.6992V24.6992" stroke="#0A8625" stroke-width="1.5" stroke-linecap="round"/>
<path d="M21 26.6992V23.6992" stroke="#0A8625" stroke-width="1.5" stroke-linecap="round"/>
<path d="M16 26.6992V21.6992" stroke="#0A8625" stroke-width="1.5" stroke-linecap="round"/>
<path d="M15 15.6992C18.1971 18.9675 22.2338 19.7805 26.1413 18.6911M24.6881 17.1705L26.7617 18.1876C27.0076 18.3082 27.074 18.5875 26.91 18.8114L25.5269 20.6992" stroke="#0A8625" stroke-width="1.5" stroke-linecap="round" stroke-linejoin="round"/>
<path d="M11.5 20.6992C11.5 16.2209 11.5 13.9817 12.8912 12.5905C14.2825 11.1992 16.5217 11.1992 21 11.1992C25.4783 11.1992 27.7175 11.1992 29.1088 12.5905C30.5 13.9817 30.5 16.2209 30.5 20.6992C30.5 25.1775 30.5 27.4167 29.1088 28.808C27.7175 30.1992 25.4783 30.1992 21 30.1992C16.5217 30.1992 14.2825 30.1992 12.8912 28.808C11.5 27.4167 11.5 25.1775 11.5 20.6992Z" stroke="#0A8625" stroke-width="1.5" stroke-linejoin="round"/>
</svg>
