<svg width="86" height="86" viewBox="0 0 86 86" fill="none" xmlns="http://www.w3.org/2000/svg">
<circle cx="43" cy="43" r="42.5521" fill="white" stroke="#075F1A" stroke-width="0.895833"/>
<path d="M35.6444 27.3155L35.4336 27.4912V27.1797C35.4336 26.856 35.1713 26.5938 34.8477 26.5938H28.9883C28.6646 26.5938 28.4023 26.856 28.4023 27.1797V33.0391C28.4023 33.3627 28.6646 33.625 28.9883 33.625H34.8477C35.1713 33.625 35.4336 33.3627 35.4336 33.0391V29.0166L36.3946 28.2157C36.6432 28.0086 36.6768 27.6392 36.4696 27.3905C36.2626 27.142 35.893 27.1082 35.6444 27.3155ZM34.2617 28.4677L32.5399 29.9025L31.7464 29.1091C31.5178 28.8802 31.1465 28.8802 30.9179 29.1091C30.689 29.3378 30.689 29.7088 30.9179 29.9376L32.0898 31.1095C32.2037 31.2234 32.3537 31.2811 32.5041 31.2811C32.8701 31.2811 32.9285 31.05 34.2618 29.9931V32.4531H29.5743V27.7656H34.2618V28.4677H34.2617ZM38.3633 30.6953H44.2227C44.5463 30.6953 44.8086 30.433 44.8086 30.1094C44.8086 29.7857 44.5463 29.5234 44.2227 29.5234H38.3633C38.0396 29.5234 37.7773 29.7857 37.7773 30.1094C37.7773 30.433 38.0396 30.6953 38.3633 30.6953ZM38.3633 33.625H53.0117C53.3354 33.625 53.5977 33.3627 53.5977 33.0391C53.5977 32.7154 53.3354 32.4531 53.0117 32.4531H38.3633C38.0396 32.4531 37.7773 32.7154 37.7773 33.0391C37.7773 33.3627 38.0396 33.625 38.3633 33.625ZM35.6444 36.6905L35.4336 36.8662V36.5547C35.4336 36.231 35.1713 35.9688 34.8477 35.9688H28.9883C28.6646 35.9688 28.4023 36.231 28.4023 36.5547V42.4141C28.4023 42.7377 28.6646 43 28.9883 43H34.8477C35.1713 43 35.4336 42.7377 35.4336 42.4141V38.3916L36.3946 37.5907C36.6432 37.3836 36.6768 37.0142 36.4696 36.7655C36.2626 36.517 35.893 36.4832 35.6444 36.6905ZM34.2617 37.8427L32.5399 39.2775L31.7464 38.4841C31.5178 38.2552 31.1465 38.2552 30.9179 38.4841C30.689 38.7128 30.689 39.0838 30.9179 39.3126L32.0898 40.4845C32.3043 40.699 32.6468 40.7141 32.8791 40.5203L34.2618 39.3681V41.8281H29.5743V37.1406H34.2618V37.8427H34.2617ZM38.3633 40.0703H44.2227C44.5463 40.0703 44.8086 39.808 44.8086 39.4844C44.8086 39.1607 44.5463 38.8984 44.2227 38.8984H38.3633C38.0396 38.8984 37.7773 39.1607 37.7773 39.4844C37.7773 39.808 38.0396 40.0703 38.3633 40.0703ZM38.3633 43H53.0117C53.3354 43 53.5977 42.7377 53.5977 42.4141C53.5977 42.0904 53.3354 41.8281 53.0117 41.8281H38.3633C38.0396 41.8281 37.7773 42.0904 37.7773 42.4141C37.7773 42.7377 38.0396 43 38.3633 43ZM35.6444 46.0655L35.4336 46.2412V45.9297C35.4336 45.606 35.1713 45.3438 34.8477 45.3438H28.9883C28.6646 45.3438 28.4023 45.606 28.4023 45.9297V51.7891C28.4023 52.1127 28.6646 52.375 28.9883 52.375H34.8477C35.1713 52.375 35.4336 52.1127 35.4336 51.7891V47.7666L36.3946 46.9657C36.6432 46.7586 36.6768 46.3892 36.4696 46.1405C36.2626 45.892 35.893 45.8582 35.6444 46.0655ZM34.2617 47.2177L32.5399 48.6525L31.7464 47.8591C31.5178 47.6302 31.1465 47.6302 30.9179 47.8591C30.689 48.0878 30.689 48.4588 30.9179 48.6876L32.0898 49.8595C32.3043 50.074 32.6468 50.0891 32.8791 49.8953L34.2618 48.7431V51.2031H29.5743V46.5156H34.2618V47.2177H34.2617ZM38.3633 49.4453H44.2227C44.5463 49.4453 44.8086 49.183 44.8086 48.8594C44.8086 48.5357 44.5463 48.2734 44.2227 48.2734H38.3633C38.0396 48.2734 37.7773 48.5357 37.7773 48.8594C37.7773 49.183 38.0396 49.4453 38.3633 49.4453ZM53.5977 51.7891C53.5977 51.4654 53.3354 51.2031 53.0117 51.2031H38.3633C38.0396 51.2031 37.7773 51.4654 37.7773 51.7891C37.7773 52.1127 38.0396 52.375 38.3633 52.375H53.0117C53.3354 52.375 53.5977 52.1127 53.5977 51.7891Z" fill="#0A8625"/>
<path d="M65.9023 13.1172H29.5742C29.2505 13.1172 28.9883 13.3795 28.9883 13.7031V17.2188H26.0586C25.7349 17.2188 25.4727 17.481 25.4727 17.8047V21.3203H24.3008C23.9771 21.3203 23.7148 21.5826 23.7148 21.9062V55.3264C19.1409 55.6292 15.5117 59.4445 15.5117 64.0938C15.5117 68.94 19.4545 72.8828 24.3008 72.8828H57.6992C58.0229 72.8828 58.2852 72.6205 58.2852 72.2969V70.5391H61.8008C62.1245 70.5391 62.3867 70.2768 62.3867 69.9531V67.0234H65.9023C66.226 67.0234 66.4883 66.7612 66.4883 66.4375V13.7031C66.4883 13.3795 66.226 13.1172 65.9023 13.1172ZM23.5849 68.2785C23.3567 68.5069 22.9857 68.5079 22.7564 68.2786L18.6132 64.1354C18.3847 63.9071 18.3841 63.5359 18.6132 63.3067L20.2706 61.6495C20.4992 61.4208 20.8705 61.4207 21.0991 61.6496L23.1707 63.7211L27.3139 59.578C27.5425 59.3492 27.9138 59.3492 28.1424 59.578L29.7998 61.2354C30.0283 61.4637 30.0289 61.8351 29.7998 62.0639L23.5849 68.2785ZM57.1133 71.7109H28.677C31.3115 70.1915 33.0898 67.3473 33.0898 64.0938C33.0898 59.4445 29.4607 55.6292 24.8867 55.3264V22.4922C26.4364 22.4922 46.1466 22.4922 47.1641 22.4922C48.45 22.4922 49.4961 23.5384 49.4961 24.8242V28.9375C49.4961 29.2612 49.7584 29.5234 50.082 29.5234H54.7812C56.0672 29.5234 57.1133 30.5697 57.1133 31.8555C57.1133 33.7448 57.1133 69.9427 57.1133 71.7109ZM65.3164 65.8516H62.3867V17.8047C62.3867 17.481 62.1245 17.2188 61.8008 17.2188H30.1602V14.2891H65.3164V65.8516Z" fill="#0A8625"/>
<path d="M23.5852 64.964C23.3566 65.1928 22.9854 65.1928 22.7567 64.964L20.6851 62.8924L19.8564 63.721L23.171 67.0356L28.5571 61.6494L27.7285 60.8208L23.5852 64.964ZM53.478 61.7018C52.7334 61.8573 52.1572 61.788 51.7662 61.4951C51.2277 61.0915 51.1639 60.3551 51.1637 60.3519C51.1286 59.8037 50.4221 59.6006 50.1021 60.0485L49.5316 60.8472C49.119 60.5666 48.7167 60.3405 48.3263 60.161C48.3506 59.2469 48.0836 58.531 47.5293 58.0275C46.2622 56.8766 43.9936 57.4218 43.8975 57.4453C43.5837 57.523 43.3927 57.8399 43.47 58.1537C43.547 58.4676 43.8635 58.6594 44.1782 58.5831C44.6655 58.4643 46.0768 58.2889 46.743 58.8964C46.9597 59.0939 47.0913 59.3769 47.1372 59.7422C45.5829 59.3608 44.2728 59.6906 43.3187 60.1496C41.2464 61.1456 41.6847 64.2472 43.9486 64.6169C46.2553 64.993 47.6513 63.6749 48.1589 61.3841C49.2757 61.9758 49.3167 62.3123 49.7512 62.2477C50.1129 62.1942 50.197 61.8876 50.3888 61.6635C50.9441 62.627 52.0283 63.2029 53.7181 62.8487C54.0348 62.7825 54.238 62.472 54.1715 62.1552C54.1052 61.8386 53.7957 61.6353 53.478 61.7018ZM44.1373 63.4603C43.0029 63.2751 42.7877 61.7051 43.8264 61.2056C44.8711 60.7036 45.9509 60.6113 47.056 60.9315C46.7157 62.7162 45.8902 63.7463 44.1373 63.4603Z" fill="#0A8625"/>
</svg>
