<svg width="43" height="42" viewBox="0 0 43 42" fill="none" xmlns="http://www.w3.org/2000/svg">
<circle cx="21.5" cy="21" r="20.25" stroke="#0A8625" stroke-width="1.5"/>
<path d="M31.5 20.6992C31.5 26.222 27.0228 30.6992 21.5 30.6992C15.9771 30.6992 11.5 26.222 11.5 20.6992M18 11.3288C19.0893 10.9218 20.2687 10.6992 21.5 10.6992C22.7313 10.6992 23.9107 10.9218 25 11.3288" stroke="#0A8625" stroke-width="1.5" stroke-linecap="round" stroke-linejoin="round"/>
<path d="M17.0183 14.1325L17.5462 15.1971C17.6182 15.3453 17.8102 15.4874 17.9722 15.5147L18.9291 15.675C19.541 15.7778 19.685 16.2254 19.2441 16.667L18.5001 17.417C18.3741 17.5441 18.3052 17.789 18.3441 17.9645L18.5571 18.8929C18.7251 19.6279 18.3382 19.9122 17.6932 19.5281L16.7963 18.9928C16.6343 18.896 16.3674 18.896 16.2024 18.9928L15.3055 19.5281C14.6636 19.9122 14.2736 19.6249 14.4416 18.8929L14.6546 17.9645C14.6936 17.789 14.6246 17.5441 14.4986 17.417L13.7547 16.667C13.3167 16.2254 13.4577 15.7778 14.0696 15.675L15.0265 15.5147C15.1855 15.4874 15.3775 15.3453 15.4495 15.1971L15.9774 14.1325C16.2654 13.5548 16.7333 13.5548 17.0183 14.1325Z" stroke="#0A8625" stroke-width="1.5" stroke-linecap="round" stroke-linejoin="round"/>
<path d="M27.0183 14.1325L27.5462 15.1971C27.6182 15.3453 27.8102 15.4874 27.9722 15.5147L28.9291 15.675C29.541 15.7778 29.685 16.2254 29.244 16.667L28.5001 17.417C28.3741 17.5441 28.3051 17.789 28.3441 17.9645L28.5571 18.8929C28.7251 19.6279 28.3381 19.9122 27.6932 19.5281L26.7963 18.9928C26.6343 18.896 26.3674 18.896 26.2024 18.9928L25.3055 19.5281C24.6636 19.9122 24.2736 19.6249 24.4416 18.8929L24.6546 17.9645C24.6935 17.789 24.6246 17.5441 24.4986 17.417L23.7547 16.667C23.3167 16.2254 23.4577 15.7778 24.0696 15.675L25.0265 15.5147C25.1855 15.4874 25.3775 15.3453 25.4495 15.1971L25.9774 14.1325C26.2654 13.5548 26.7333 13.5548 27.0183 14.1325Z" stroke="#0A8625" stroke-width="1.5" stroke-linecap="round" stroke-linejoin="round"/>
<path d="M17.5 23.6992C18.4121 24.9136 19.8643 25.6992 21.5 25.6992C23.1357 25.6992 24.5879 24.9136 25.5 23.6992" stroke="#0A8625" stroke-width="1.5" stroke-linecap="round" stroke-linejoin="round"/>
</svg>
